<?xml version="1.0" encoding="UTF-8" standalone="no"?>
<!-- Created with Inkscape (http://www.inkscape.org/) -->

<svg
   version="1.1"
   id="svg2"
   width="4000"
   height="2666.6667"
   viewBox="0 0 4000 2666.6667"
   sodipodi:docname="vecteezy_officer-fnancial-audit-business-analysis-market-research_.eps"
   xmlns:inkscape="http://www.inkscape.org/namespaces/inkscape"
   xmlns:sodipodi="http://sodipodi.sourceforge.net/DTD/sodipodi-0.dtd"
   xmlns="http://www.w3.org/2000/svg"
   xmlns:svg="http://www.w3.org/2000/svg">
  <defs
     id="defs6">
    <clipPath
       clipPathUnits="userSpaceOnUse"
       id="clipPath24">
      <path
         d="m 18104.8,7075.8 c 0,0 -302.5,-1534.7 -302.5,-2034.4 0,-499.6 151.2,-2890.9 151.2,-2890.9 H 19945 l 213.5,2195 221.2,-2195 h 1908.9 c 0,0 1.1,2582.5 -8.5,2798 -33.9,763.6 -498.4,2245.3 -498.4,2245.3 l -3676.9,-118"
         id="path22" />
    </clipPath>
    <clipPath
       clipPathUnits="userSpaceOnUse"
       id="clipPath46">
      <path
         d="m 21166.4,14640.9 c -39.7,208.9 -198.6,377.4 -406.6,422 -368.9,79 -832.5,-71.3 -962.2,-216.1 -180.3,-201.6 90.4,-1067.7 165.2,-1263.5 0,0 -505.9,-836.2 -560.2,-962.9 l -0.8,-2.1 -427.7,-131.4 c 0,0 375.3,-1147.9 1185.5,-1305.6 0,0 509.5,384.3 534,1208.9 l -199.7,97 c 44.2,199.2 88.6,414.8 108.2,549.5 166.4,-77.8 340.7,-117.8 490.9,-76.5 337.1,92.7 163.2,1207.8 73.4,1680.7"
         id="path44" />
    </clipPath>
    <clipPath
       clipPathUnits="userSpaceOnUse"
       id="clipPath66">
      <path
         d="m 16619.7,4400.1 c 0,0 0,-248.6 8.9,-281.1 8.9,-32.6 162.8,-233.8 168.7,-269.3 5.9,-35.5 -23.7,-653.9 -92.7,-665.9 -170.7,-29.6 -188.4,53.3 -194.3,94.7 -3.3,23 1.6,-0.4 -16.6,-23.8 -14.6,-18.8 -44.1,-37.7 -104.8,-32.4 -136.1,11.8 -142,153.9 -142,153.9 0,0 14.8,-139.1 -115.4,-82.9 -130.3,56.3 -130.3,174.6 -130.3,174.6 0,0 -68,-97.6 -139,-38.4 -71.1,59.1 -79.9,174.6 -74,189.3 5.9,14.8 14.8,346.3 85.8,458.7 68.8,109 156.8,381.8 156.8,381.8 l 588.9,-59.2"
         id="path64" />
    </clipPath>
    <clipPath
       clipPathUnits="userSpaceOnUse"
       id="clipPath290">
      <path
         d="m 10277.2,10011.1 c 0,0 -1049.22,-1627.9 -898.52,-1697.7 150.7,-69.9 683.92,-235.7 683.92,-235.7 l 214.6,1933.4"
         id="path288" />
    </clipPath>
    <clipPath
       clipPathUnits="userSpaceOnUse"
       id="clipPath306">
      <path
         d="m 13047.7,10627.3 c -398.4,304.8 -651.3,393.8 -651.3,393.8 l -990.2,-258.7 c 0,0 -767,-191.8 -1129,-751.3 C 9915.14,9451.6 9945.02,6452.5 9866.86,5595 9814.3,5018.2 12603,5139.1 12866.3,5270.7 c 158.2,79.1 330.5,1200.2 460.7,2250.1 l 540.6,28.5 c 0,0 365.8,2303.7 -819.9,3078"
         id="path304" />
    </clipPath>
    <clipPath
       clipPathUnits="userSpaceOnUse"
       id="clipPath318">
      <path
         d="m 11663.4,13794.3 c -131.2,-16.6 -263.6,-33.5 -388.4,-77.3 -124.7,-43.8 -243,-117.3 -317.4,-226.7 -108.1,-159.2 -109.3,-368.4 -194.5,-541 -105.5,-213.8 -328.2,-349.4 -441.7,-559.1 -63.2,-117 -89,-255.4 -63.2,-385.8 35.2,-178.2 162.6,-327.9 315,-426.7 152.4,-98.8 328.9,-153.1 504.5,-199.5 351.9,-93.1 710.9,-159.7 1072.8,-199.1 133.8,301 238.3,614.1 326.7,931.4 109.1,391.9 180.8,818.1 37.5,1198.8 -38,101.1 -91.6,197.9 -168.1,274.1 -166.2,165.5 -450.5,240.3 -683.2,210.9"
         id="path316" />
    </clipPath>
    <clipPath
       clipPathUnits="userSpaceOnUse"
       id="clipPath330">
      <path
         d="m 12597.9,13248.5 c -94.9,178.8 -526.3,446.4 -919.2,458.5 -221.4,6.8 -424.1,-124 -516.4,-325.4 -208.7,-455.9 -483.5,-1527.3 -165.6,-1705.2 141.5,-79.2 266.4,-64.7 395.7,-32.7 -29.1,-299 -141.8,-1032.9 -90.1,-1111.8 192.2,-293.8 930.8,107.3 1102.1,231.9 171.3,124.6 -288.4,1248.1 -288.4,1248.1 124.4,179.4 614.1,987.9 481.9,1236.6"
         id="path328" />
    </clipPath>
    <clipPath
       clipPathUnits="userSpaceOnUse"
       id="clipPath368">
      <path
         d="M 10036.5,3142.1 H 7215.1 c -69.76,0 -148.65,56.5 -176.22,126.3 l -740.17,1873.2 c -27.56,69.7 6.64,126.3 76.39,126.3 h 2821.45 c 69.77,0 148.65,-56.6 176.22,-126.3 l 740.13,-1873.2 c 27.6,-69.8 -6.6,-126.3 -76.4,-126.3"
         id="path366" />
    </clipPath>
    <clipPath
       clipPathUnits="userSpaceOnUse"
       id="clipPath374">
      <path
         d="M 10036.5,3142.1 H 7215.1 c -69.76,0 -148.65,56.5 -176.22,126.3 l -45.35,114.7 c 872.55,197.8 2202.78,1319.5 2463.6,1545 l 655.77,-1659.7 c 6.5,-16.4 9.6,-32 9.6,-46.3 0,-46.9 -32.5,-80 -86,-80"
         id="path372" />
    </clipPath>
    <clipPath
       clipPathUnits="userSpaceOnUse"
       id="clipPath388">
      <path
         d="m 9544.25,8322.8 c 0,0 -180.38,-559 -303.27,-858 -40.9,-99.4 -2349.45,1910 -2349.45,1910 l -330.97,-330.4 c 0,0 2116.56,-3014.7 2727.87,-3014.7 414.6,0.1 623.61,305.9 623.61,305.9 l 150.56,1742.1 -518.35,245.1"
         id="path386" />
    </clipPath>
    <clipPath
       clipPathUnits="userSpaceOnUse"
       id="clipPath404">
      <path
         d="m 13729.5,7542 c 0,0 -110.6,-1362.5 -227.3,-1620.6 -83.4,-184.3 -3310.4,-1901.2 -3310.4,-1901.2 l -325.67,454.7 c 0,0 2461.77,1900.4 2461.77,1942.5 0,42.1 60.4,1058.6 60.4,1058.6 l 1341.2,66"
         id="path402" />
    </clipPath>
  </defs>
  <sodipodi:namedview
     id="namedview4"
     pagecolor="#ffffff"
     bordercolor="#000000"
     borderopacity="0.25"
     inkscape:showpageshadow="2"
     inkscape:pageopacity="0.0"
     inkscape:pagecheckerboard="0"
     inkscape:deskcolor="#d1d1d1" />
  <g
     id="g8"
     inkscape:groupmode="layer"
     inkscape:label="ink_ext_XXXXXX"
     transform="matrix(1.3333333,0,0,-1.3333333,0,2666.6667)">
    <g
       id="g10"
       transform="scale(0.1)">
      <path
         d="M 0,0 H 30000 V 20000 H 0 Z"
         style="fill:#ffffff;fill-opacity:1;fill-rule:nonzero;stroke:none"
         id="path12" />
      <path
         d="m 15355.6,18096.8 c -1096.5,268.7 -2203.6,461.3 -3316,543.6 -2780.06,205.7 -5889.84,-806.5 -7403.54,-3287.1 -2128.29,-3487.6 -481.71,-8623.8 3103.28,-10424.5 1435.71,-721.1 3065.16,-926.5 4654.96,-852.9 1643.4,76 3164.2,568.7 4774.9,818.4 1261.1,195.5 2545.9,87.6 3828,-20.4 1485,-125.1 2966.4,-250.1 4403.3,96.3 1302.9,314.2 2212.5,1199.7 2507.2,2523 504.8,2266.7 -213.5,4840.8 -2065.4,6297.1 -829.4,652.2 -1794.1,1107.1 -2759.7,1532.3 -2493.2,1097.6 -5077.5,2124.8 -7727,2774.2"
         style="fill:#f6f9ff;fill-opacity:1;fill-rule:nonzero;stroke:none"
         id="path14" />
      <path
         d="m 18104.8,7075.8 c 0,0 -302.5,-1534.7 -302.5,-2034.4 0,-499.6 151.2,-2890.9 151.2,-2890.9 H 19945 l 213.5,2195 221.2,-2195 h 1908.9 c 0,0 1.1,2582.5 -8.5,2798 -33.9,763.6 -498.4,2245.3 -498.4,2245.3 l -3676.9,-118"
         style="fill:#1b3d9e;fill-opacity:1;fill-rule:nonzero;stroke:none"
         id="path16" />
      <g
         id="g18">
        <g
           id="g20"
           clip-path="url(#clipPath24)">
          <path
             d="m 20190,6936.5 -31.5,-2591 c 0,0 316.5,170.5 354.4,326.6 38,156.2 85.4,2340.3 85.4,2340.3 l -408.3,-75.9"
             style="fill:#1c056d;fill-opacity:1;fill-rule:nonzero;stroke:none"
             id="path26" />
          <path
             d="m 22236.4,6481.4 h -4542.9 c -8.3,0 -15,6.7 -15,15 0,8.3 6.7,15 15,15 h 4542.9 c 8.3,0 15,-6.7 15,-15 0,-8.3 -6.7,-15 -15,-15"
             style="fill:#1c056d;fill-opacity:1;fill-rule:nonzero;stroke:none"
             id="path28" />
          <path
             d="m 19240.8,6619.5 h -1.3 c -8.3,0.7 -14.4,8 -13.7,16.2 l 2.3,27.6 c 0.7,8.3 7.9,14.4 16.2,13.7 8.3,-0.7 14.4,-8 13.7,-16.2 l -2.3,-27.6 c -0.7,-7.8 -7.2,-13.7 -14.9,-13.7 m -8.5,-99.7 -1.3,0.1 c -8.2,0.7 -14.3,7.9 -13.7,16.2 l 4.3,49.8 c 0.7,8.3 7.8,14.2 16.2,13.7 8.2,-0.7 14.4,-8 13.7,-16.2 l -4.3,-49.8 c -0.6,-7.9 -7.2,-13.8 -14.9,-13.8 m -8.4,-99.6 h -1.3 c -8.3,0.7 -14.4,8 -13.7,16.2 l 4.2,49.9 c 0.7,8.2 7.9,14.2 16.2,13.7 8.3,-0.8 14.4,-8 13.7,-16.3 l -4.2,-49.8 c -0.7,-7.8 -7.2,-13.7 -14.9,-13.7 m -8.5,-99.7 -1.2,0.1 c -8.3,0.7 -14.4,7.9 -13.7,16.2 l 4.2,49.8 c 0.7,8.3 8.1,14.3 16.2,13.7 8.3,-0.7 14.4,-7.9 13.7,-16.2 l -4.2,-49.8 c -0.7,-7.9 -7.3,-13.8 -15,-13.8 m -8.4,-99.6 h -1.3 c -8.3,0.8 -14.4,8 -13.7,16.3 l 4.2,49.8 c 0.7,8.2 8.1,14.3 16.3,13.7 8.2,-0.7 14.3,-8 13.6,-16.3 l -4.2,-49.8 c -0.6,-7.8 -7.2,-13.7 -14.9,-13.7 m -8.4,-99.7 -1.3,0.1 c -8.3,0.7 -14.4,8 -13.7,16.2 l 4.2,49.8 c 0.7,8.3 8.1,14.3 16.2,13.7 8.3,-0.7 14.4,-7.9 13.7,-16.2 l -4.2,-49.8 c -0.7,-7.8 -7.2,-13.8 -14.9,-13.8 m -8.5,-99.6 -1.3,0.1 c -8.2,0.7 -14.3,7.9 -13.7,16.2 l 4.3,49.8 c 0.7,8.3 7.9,14.3 16.2,13.7 8.2,-0.7 14.4,-8 13.7,-16.2 l -4.3,-49.9 c -0.6,-7.8 -7.2,-13.7 -14.9,-13.7 m -8.4,-99.6 h -1.3 c -8.3,0.7 -14.4,8 -13.7,16.2 l 4.2,49.9 c 0.7,8.2 7.9,14.2 16.2,13.6 8.3,-0.7 14.4,-7.9 13.7,-16.2 l -4.2,-49.8 c -0.7,-7.8 -7.2,-13.7 -14.9,-13.7 m -8.5,-99.7 -1.2,0.1 c -8.3,0.7 -14.4,7.9 -13.7,16.2 l 4.2,49.8 c 0.7,8.3 8,14.3 16.2,13.7 8.3,-0.7 14.4,-8 13.7,-16.2 l -4.2,-49.8 c -0.7,-7.9 -7.3,-13.8 -15,-13.8 m -8.4,-99.6 h -1.3 c -8.2,0.7 -14.4,8 -13.7,16.2 l 4.3,49.9 c 0.6,8.2 8,14.2 16.2,13.6 8.2,-0.6 14.3,-7.9 13.7,-16.2 l -4.3,-49.8 c -0.6,-7.8 -7.2,-13.7 -14.9,-13.7 m -8.4,-99.7 -1.3,0.1 c -8.3,0.7 -14.4,8 -13.7,16.2 l 4.2,49.8 c 0.7,8.3 8.1,14.5 16.2,13.7 8.3,-0.7 14.4,-8 13.7,-16.2 l -4.2,-49.8 c -0.7,-7.9 -7.2,-13.8 -14.9,-13.8 m -8.5,-99.6 h -1.3 c -8.2,0.7 -14.3,8 -13.6,16.3 l 4.2,49.8 c 0.7,8.2 7.8,14.2 16.2,13.7 8.2,-0.7 14.4,-8 13.7,-16.3 l -4.3,-49.8 c -0.6,-7.8 -7.2,-13.7 -14.9,-13.7 m -8.4,-99.7 -1.3,0.1 c -8.3,0.7 -14.4,8 -13.7,16.2 l 4.2,49.8 c 0.7,8.3 7.9,14.5 16.3,13.7 8.2,-0.7 14.3,-7.9 13.6,-16.2 l -4.2,-49.8 c -0.7,-7.8 -7.2,-13.8 -14.9,-13.8 m -8.5,-99.6 h -1.2 c -8.3,0.8 -14.4,8 -13.7,16.3 l 4.2,49.8 c 0.7,8.2 7.9,14.3 16.2,13.7 8.3,-0.7 14.4,-8 13.7,-16.2 l -4.2,-49.9 c -0.7,-7.8 -7.2,-13.7 -15,-13.7 m -8.4,-99.6 h -1.3 c -8.2,0.7 -14.4,8 -13.7,16.2 l 4.3,49.8 c 0.7,8.3 8,14.4 16.2,13.7 8.2,-0.7 14.4,-7.9 13.7,-16.2 l -4.3,-49.8 c -0.6,-7.8 -7.2,-13.7 -14.9,-13.7 m -8.4,-99.7 -1.3,0.1 c -8.3,0.7 -14.4,7.9 -13.7,16.2 l 4.2,49.8 c 0.7,8.3 7.9,14.3 16.2,13.7 8.3,-0.7 14.4,-8 13.7,-16.2 l -4.2,-49.9 c -0.7,-7.8 -7.2,-13.7 -14.9,-13.7 m -8.5,-99.6 h -1.3 c -8.2,0.7 -14.3,8 -13.6,16.2 l 4.2,49.9 c 0.7,8.2 7.9,14.3 16.2,13.6 8.3,-0.6 14.4,-7.9 13.7,-16.2 l -4.2,-49.8 c -0.7,-7.8 -7.3,-13.7 -15,-13.7 m -8.4,-99.7 -1.3,0.1 c -8.3,0.7 -14.4,7.9 -13.7,16.2 l 4.2,49.8 c 0.7,8.3 7.9,14.3 16.3,13.7 8.2,-0.7 14.3,-8 13.6,-16.2 l -4.2,-49.8 c -0.6,-7.9 -7.2,-13.8 -14.9,-13.8 m -8.5,-99.6 h -1.2 c -8.3,0.7 -14.4,8 -13.7,16.3 l 4.2,49.8 c 0.7,8.2 8,14.3 16.2,13.7 8.3,-0.7 14.4,-8 13.7,-16.3 l -4.2,-49.8 c -0.7,-7.8 -7.2,-13.7 -15,-13.7 m -8.4,-99.7 -1.3,0.1 c -8.2,0.7 -14.4,7.9 -13.7,16.2 l 4.3,49.8 c 0.7,8.3 7.8,14.5 16.2,13.7 8.2,-0.7 14.4,-7.9 13.7,-16.2 l -4.3,-49.8 c -0.6,-7.8 -7.2,-13.8 -14.9,-13.8 m -8.4,-99.6 h -1.3 c -8.3,0.8 -14.4,8 -13.7,16.3 l 4.2,49.8 c 0.7,8.3 7.9,14.3 16.2,13.7 8.3,-0.7 14.4,-8 13.7,-16.2 l -4.2,-49.9 c -0.7,-7.8 -7.2,-13.7 -14.9,-13.7 m -8.5,-99.6 h -1.3 c -8.2,0.7 -14.3,8 -13.6,16.2 l 4.2,49.8 c 0.7,8.3 7.8,14.3 16.2,13.7 8.3,-0.7 14.4,-7.9 13.7,-16.2 l -4.2,-49.8 c -0.7,-7.8 -7.3,-13.7 -15,-13.7 m -8.4,-99.7 -1.3,0.1 c -8.2,0.7 -14.4,7.9 -13.7,16.2 l 4.2,49.8 c 0.7,8.3 8.1,14.3 16.3,13.7 8.2,-0.7 14.3,-8 13.6,-16.2 l -4.2,-49.9 c -0.6,-7.8 -7.2,-13.7 -14.9,-13.7 m -8.4,-99.6 h -1.3 c -8.3,0.7 -14.4,8 -13.7,16.2 l 4.2,49.9 c 0.7,8.2 8.1,14.2 16.2,13.6 8.3,-0.7 14.4,-7.9 13.7,-16.2 l -4.2,-49.8 c -0.7,-7.8 -7.2,-13.7 -14.9,-13.7 m -8.5,-99.7 -1.3,0.1 c -8.2,0.7 -14.3,7.9 -13.7,16.2 l 4.3,49.8 c 0.7,8.3 8,14.3 16.2,13.7 8.2,-0.7 14.4,-8 13.7,-16.2 l -4.3,-49.8 c -0.6,-7.9 -7.2,-13.8 -14.9,-13.8 m -8.4,-99.6 h -1.3 c -8.3,0.7 -14.4,8 -13.7,16.3 l 4.2,49.8 c 0.7,8.2 7.9,14.2 16.2,13.7 8.3,-0.7 14.4,-8 13.7,-16.3 l -4.2,-49.8 c -0.7,-7.8 -7.2,-13.7 -14.9,-13.7 m -8.5,-99.7 -1.2,0.1 c -8.3,0.7 -14.4,7.9 -13.7,16.2 l 4.2,49.8 c 0.7,8.3 7.9,14.4 16.2,13.7 8.3,-0.7 14.4,-7.9 13.7,-16.2 l -4.2,-49.8 c -0.7,-7.9 -7.3,-13.8 -15,-13.8 m -8.4,-99.6 -1.3,0.1 c -8.2,0.7 -14.4,7.9 -13.7,16.2 l 4.2,49.8 c 0.8,8.2 8.1,14.2 16.3,13.7 8.2,-0.7 14.3,-8 13.7,-16.3 l -4.3,-49.8 c -0.6,-7.8 -7.2,-13.7 -14.9,-13.7 m -8.4,-99.6 h -1.3 c -8.3,0.7 -14.4,8 -13.7,16.2 l 4.2,49.8 c 0.7,8.3 8,14.3 16.2,13.7 8.3,-0.7 14.4,-7.9 13.7,-16.2 l -4.2,-49.8 c -0.7,-7.8 -7.2,-13.7 -14.9,-13.7 m -8.5,-99.7 -1.3,0.1 c -8.2,0.7 -14.3,7.9 -13.7,16.2 l 4.3,49.8 c 0.7,8.3 8,14.2 16.2,13.7 8.2,-0.7 14.4,-8 13.7,-16.2 l -4.3,-49.9 c -0.6,-7.8 -7.2,-13.7 -14.9,-13.7 m -8.4,-99.6 h -1.3 c -8.3,0.7 -14.4,8 -13.7,16.2 l 4.2,49.9 c 0.7,8.2 7.9,14.2 16.2,13.6 8.3,-0.7 14.4,-7.9 13.7,-16.2 l -4.2,-49.8 c -0.7,-7.8 -7.2,-13.7 -14.9,-13.7 m -8.5,-99.7 -1.2,0.1 c -8.3,0.7 -14.4,7.9 -13.7,16.2 l 4.2,49.8 c 0.7,8.3 8,14.2 16.2,13.7 8.3,-0.7 14.4,-8 13.7,-16.2 l -4.2,-49.8 c -0.7,-7.9 -7.3,-13.8 -15,-13.8 m -8.4,-99.6 h -1.3 c -8.2,0.7 -14.4,8 -13.7,16.3 l 4.2,49.8 c 0.8,8.2 7.9,14.2 16.3,13.7 8.2,-0.7 14.3,-8 13.7,-16.3 l -4.3,-49.8 c -0.6,-7.8 -7.2,-13.7 -14.9,-13.7 m -8.4,-99.7 -1.3,0.1 c -8.3,0.7 -14.4,8 -13.7,16.2 l 4.2,49.8 c 0.7,8.3 8.1,14.4 16.2,13.7 8.3,-0.7 14.4,-7.9 13.7,-16.2 l -4.2,-49.8 c -0.7,-7.9 -7.2,-13.8 -14.9,-13.8 m -8.5,-99.6 h -1.3 c -8.2,0.7 -14.3,8 -13.6,16.3 l 4.2,49.8 c 0.7,8.3 7.9,14.3 16.2,13.7 8.2,-0.7 14.4,-8 13.7,-16.3 l -4.2,-49.8 c -0.7,-7.8 -7.3,-13.7 -15,-13.7 m -8.4,-99.6 h -1.3 c -8.3,0.7 -14.4,8 -13.7,16.2 l 4.2,49.8 c 0.7,8.3 8.1,14.4 16.3,13.7 8.2,-0.7 14.3,-7.9 13.6,-16.2 l -4.2,-49.8 c -0.6,-7.8 -7.2,-13.7 -14.9,-13.7 m -8.5,-99.7 -1.2,0.1 c -8.3,0.7 -14.4,7.9 -13.7,16.2 l 4.2,49.8 c 0.7,8.3 7.9,14.3 16.2,13.7 8.3,-0.7 14.4,-8 13.7,-16.2 l -4.2,-49.9 c -0.7,-7.8 -7.3,-13.7 -15,-13.7 m -8.4,-99.6 h -1.3 c -8.2,0.7 -14.4,8 -13.7,16.2 l 4.3,49.9 c 0.7,8.2 8,14.3 16.2,13.6 8.2,-0.7 14.4,-7.9 13.7,-16.2 l -4.3,-49.8 c -0.6,-7.8 -7.2,-13.7 -14.9,-13.7 m -8.4,-99.7 -1.3,0.1 c -8.3,0.7 -14.4,7.9 -13.7,16.2 l 4.2,49.8 c 0.7,8.3 7.9,14.3 16.2,13.7 8.3,-0.7 14.4,-8 13.7,-16.2 l -4.2,-49.9 c -0.7,-7.8 -7.2,-13.7 -14.9,-13.7 m -8.5,-99.6 h -1.3 c -8.2,0.7 -14.3,8 -13.6,16.2 l 4.2,49.9 c 0.7,8.2 7.8,14.3 16.2,13.7 8.2,-0.8 14.4,-8 13.7,-16.3 l -4.2,-49.8 c -0.7,-7.8 -7.3,-13.7 -15,-13.7 m -8.4,-99.7 -1.3,0.1 c -8.2,0.7 -14.4,7.9 -13.7,16.2 l 4.2,49.8 c 0.7,8.3 7.9,14.3 16.3,13.7 8.2,-0.7 14.3,-8 13.6,-16.2 l -4.2,-49.8 c -0.6,-7.9 -7.2,-13.8 -14.9,-13.8 m -8.4,-99.6 h -1.3 c -8.3,0.7 -14.4,8 -13.7,16.3 l 4.2,49.8 c 0.7,8.3 8.1,14.3 16.2,13.7 8.3,-0.7 14.4,-8 13.7,-16.2 l -4.2,-49.9 c -0.7,-7.8 -7.2,-13.7 -14.9,-13.7 m -8.5,-99.7 -1.3,0.1 c -8.2,0.7 -14.4,8 -13.7,16.2 l 4.3,49.8 c 0.7,8.3 8,14.5 16.2,13.7 8.2,-0.7 14.4,-7.9 13.7,-16.2 l -4.3,-49.8 c -0.6,-7.8 -7.2,-13.8 -14.9,-13.8 m -8.4,-99.6 -1.3,0.1 c -8.3,0.7 -14.4,7.9 -13.7,16.2 l 4.2,49.8 c 0.7,8.3 7.9,14.3 16.2,13.7 8.3,-0.7 14.4,-8 13.7,-16.2 l -4.2,-49.9 c -0.7,-7.8 -7.2,-13.7 -14.9,-13.7 m -8.5,-99.6 h -1.3 c -8.2,0.7 -14.3,8 -13.6,16.2 l 4.2,49.9 c 0.7,8.2 7.9,14.2 16.2,13.6 8.3,-0.7 14.4,-7.9 13.7,-16.2 l -4.2,-49.8 c -0.7,-7.8 -7.3,-13.7 -15,-13.7 m -8.4,-99.7 -1.3,0.1 c -8.2,0.7 -14.4,7.9 -13.7,16.2 l 4.2,49.8 c 0.7,8.3 7.9,14.3 16.3,13.7 8.2,-0.7 14.3,-8 13.6,-16.2 l -4.2,-49.9 c -0.6,-7.8 -7.2,-13.7 -14.9,-13.7"
             style="fill:#1c056d;fill-opacity:1;fill-rule:nonzero;stroke:none"
             id="path30" />
          <path
             d="m 21209.7,6498.1 c -7.9,0 -14.5,6.1 -15,14.1 l -2.9,49.9 c -0.5,8.3 5.8,15.4 14.1,15.9 8.3,0.6 15.4,-5.9 15.9,-14.1 l 2.9,-50 c 0.5,-8.2 -5.8,-15.3 -14.1,-15.8 h -0.9 m 5.9,-99.9 c -7.9,0 -14.5,6.2 -15,14.2 l -2.9,49.9 c -0.5,8.2 5.8,15.3 14.1,15.8 8.4,0.6 15.3,-5.8 15.8,-14.1 l 2.9,-49.9 c 0.5,-8.3 -5.8,-15.3 -14,-15.8 l -0.9,-0.1 m 5.8,-99.8 c -7.9,0 -14.5,6.2 -14.9,14.1 l -3,50 c -0.5,8.2 5.9,15.3 14.1,15.8 8.3,0.6 15.4,-5.8 15.9,-14.1 l 2.9,-49.9 c 0.5,-8.3 -5.8,-15.4 -14.1,-15.9 h -0.9 m 5.9,-99.8 c -7.9,0 -14.5,6.1 -15,14.1 l -2.9,49.9 c -0.5,8.3 5.8,15.4 14.1,15.9 8.4,0.6 15.3,-5.9 15.8,-14.1 l 3,-49.9 c 0.5,-8.3 -5.9,-15.4 -14.1,-15.9 h -0.9 m 5.9,-99.8 c -7.9,0 -14.5,6.1 -15,14.1 l -2.9,49.9 c -0.5,8.3 5.8,15.4 14,15.8 8.3,0.5 15.4,-5.8 15.9,-14 l 2.9,-50 c 0.5,-8.2 -5.8,-15.3 -14.1,-15.8 h -0.8 m 5.8,-99.9 c -7.9,0 -14.5,6.2 -14.9,14.2 l -3,49.9 c -0.5,8.2 5.8,15.3 14.1,15.8 8.5,0.6 15.4,-5.8 15.9,-14.1 l 2.9,-49.9 c 0.5,-8.3 -5.8,-15.4 -14.1,-15.8 l -0.9,-0.1 m 5.9,-99.8 c -7.9,0 -14.5,6.2 -15,14.1 l -2.9,49.9 c -0.5,8.3 5.8,15.4 14.1,15.9 8.3,0.5 15.3,-5.8 15.8,-14.1 l 3,-49.9 c 0.4,-8.3 -5.9,-15.4 -14.1,-15.9 h -0.9 m 5.8,-99.8 c -7.9,0 -14.5,6.1 -14.9,14.1 l -3,49.9 c -0.5,8.3 5.9,15.4 14.1,15.9 8.5,0.5 15.4,-5.9 15.9,-14.1 l 2.9,-49.9 c 0.5,-8.3 -5.8,-15.4 -14.1,-15.9 h -0.9 m 5.9,-99.9 c -7.9,0 -14.5,6.2 -15,14.2 l -2.9,49.9 c -0.5,8.2 5.8,15.3 14.1,15.8 8.3,0.6 15.3,-5.8 15.8,-14.1 l 3,-49.9 c 0.5,-8.3 -5.8,-15.3 -14.1,-15.8 l -0.9,-0.1 m 5.8,-99.8 c -7.8,0 -14.4,6.2 -14.9,14.1 l -2.9,50 c -0.5,8.2 5.8,15.3 14,15.8 8.5,0.5 15.4,-5.8 15.9,-14.1 l 2.9,-49.9 c 0.5,-8.3 -5.8,-15.4 -14.1,-15.8 l -0.9,-0.1 m 5.9,-99.8 c -7.9,0 -14.5,6.1 -15,14.1 l -2.9,49.9 c -0.5,8.3 5.8,15.4 14.1,15.9 8.4,0.5 15.4,-5.9 15.9,-14.1 l 2.9,-49.9 c 0.5,-8.3 -5.8,-15.4 -14.1,-15.9 h -0.9 m 5.9,-99.8 c -7.9,0 -14.5,6.1 -15,14.1 l -2.9,49.9 c -0.5,8.3 5.8,15.4 14.1,15.8 8.5,0.5 15.3,-5.8 15.8,-14 l 2.9,-50 c 0.5,-8.2 -5.8,-15.3 -14,-15.8 h -0.9 m 5.8,-99.9 c -7.9,0 -14.5,6.2 -14.9,14.2 l -3,49.9 c -0.5,8.2 5.9,15.3 14.1,15.8 8.4,0.5 15.4,-5.8 15.9,-14.1 l 2.9,-49.9 c 0.5,-8.3 -5.8,-15.4 -14.1,-15.8 l -0.9,-0.1 m 5.9,-99.8 c -7.9,0 -14.5,6.2 -15,14.1 l -2.9,49.9 c -0.5,8.3 5.8,15.4 14.1,15.9 8.5,0.5 15.3,-5.8 15.8,-14.1 l 3,-49.9 c 0.5,-8.3 -5.8,-15.4 -14.1,-15.9 h -0.9 m 5.9,-99.8 c -7.9,0 -14.5,6.1 -15,14.1 l -2.9,49.9 c -0.5,8.3 5.8,15.4 14.1,15.9 8.3,0.4 15.3,-5.9 15.8,-14.1 l 2.9,-49.9 c 0.5,-8.3 -5.8,-15.4 -14.1,-15.9 h -0.8 m 5.8,-99.9 c -7.9,0 -14.5,6.2 -14.9,14.2 l -3,49.9 c -0.5,8.2 5.8,15.4 14.1,15.8 8.5,0.7 15.4,-5.8 15.9,-14.1 l 2.9,-49.9 c 0.5,-8.2 -5.8,-15.3 -14.1,-15.8 l -0.9,-0.1 m 5.9,-99.8 c -7.9,0 -14.5,6.2 -15,14.1 l -2.9,50 c -0.5,8.2 5.8,15.3 14.1,15.8 8.3,0.7 15.3,-5.8 15.8,-14.1 l 3,-49.9 c 0.4,-8.3 -5.9,-15.4 -14.1,-15.8 l -0.9,-0.1 m 5.8,-99.8 c -7.9,0 -14.5,6.1 -14.9,14.1 l -3,49.9 c -0.4,8.3 5.9,15.4 14.1,15.9 8.6,0.7 15.4,-5.9 15.9,-14.1 l 2.9,-49.9 c 0.5,-8.3 -5.8,-15.4 -14.1,-15.9 h -0.9 m 5.9,-99.8 c -7.9,0 -14.5,6.1 -15,14.1 l -2.9,49.9 c -0.5,8.3 5.8,15.4 14.1,15.8 8.4,0.7 15.4,-5.8 15.8,-14 l 3,-50 c 0.5,-8.2 -5.8,-15.3 -14.1,-15.8 h -0.9 m 5.9,-99.9 c -7.9,0 -14.5,6.2 -15,14.2 l -2.9,49.9 c -0.5,8.2 5.8,15.3 14.1,15.8 8.2,0.4 15.3,-5.8 15.8,-14.1 l 2.9,-49.9 c 0.5,-8.3 -5.8,-15.4 -14.1,-15.8 l -0.8,-0.1 m 5.8,-99.8 c -7.9,0 -14.5,6.2 -15,14.1 l -2.9,49.9 c -0.5,8.3 5.8,15.4 14.1,15.9 8.4,0.7 15.4,-5.8 15.9,-14.1 l 2.9,-49.9 c 0.5,-8.3 -5.8,-15.4 -14.1,-15.9 h -0.9 m 5.9,-99.8 c -7.9,0 -14.5,6.1 -15,14.1 l -2.9,49.9 c -0.5,8.3 5.8,15.4 14.1,15.9 8.5,0.6 15.3,-5.9 15.8,-14.1 l 2.9,-49.9 c 0.5,-8.3 -5.8,-15.4 -14,-15.9 h -0.9 m 5.8,-99.9 c -7.9,0 -14.5,6.2 -14.9,14.2 l -3,49.9 c -0.4,8.2 5.9,15.4 14.1,15.8 8.4,0.7 15.4,-5.8 15.9,-14.1 l 2.9,-49.9 c 0.5,-8.2 -5.8,-15.3 -14.1,-15.8 l -0.9,-0.1 m 5.9,-99.8 c -7.9,0 -14.5,6.2 -15,14.1 l -2.9,50 c -0.5,8.2 5.8,15.3 14.1,15.8 8.5,0.6 15.4,-5.8 15.9,-14.1 l 2.9,-49.9 c 0.5,-8.3 -5.8,-15.4 -14.1,-15.8 l -0.9,-0.1 m 5.9,-99.8 c -7.9,0 -14.5,6.1 -15,14.1 l -2.9,49.9 c -0.5,8.3 5.8,15.4 14.1,15.9 8.4,0.6 15.3,-5.8 15.8,-14.1 l 2.9,-49.9 c 0.5,-8.3 -5.8,-15.4 -14,-15.9 h -0.9 m 5.8,-99.8 c -7.9,0 -14.5,6.1 -14.9,14.1 l -3,49.9 c -0.5,8.3 5.9,15.4 14.1,15.8 8.3,0.7 15.4,-5.8 15.9,-14 l 2.9,-50 c 0.5,-8.2 -5.8,-15.3 -14.1,-15.8 h -0.9 m 5.9,-99.9 c -7.9,0 -14.5,6.2 -15,14.2 l -2.9,49.9 c -0.5,8.2 5.8,15.3 14.1,15.8 8.1,0.4 15.3,-5.8 15.8,-14.1 l 3,-49.9 c 0.5,-8.3 -5.9,-15.4 -14.1,-15.8 l -0.9,-0.1 m 5.8,-99.8 c -7.9,0 -14.5,6.2 -14.9,14.1 l -3,49.9 c -0.4,8.3 5.9,15.4 14.1,15.9 8.3,0.6 15.4,-5.8 15.9,-14.1 l 2.9,-49.9 c 0.5,-8.3 -5.8,-15.4 -14.1,-15.9 h -0.9 m 5.9,-99.8 c -7.9,0 -14.5,6.1 -15,14.1 l -2.9,49.9 c -0.5,8.3 5.8,15.4 14.1,15.9 8.4,0.5 15.4,-5.9 15.8,-14.1 l 3,-49.9 c 0.5,-8.3 -5.8,-15.4 -14.1,-15.9 h -0.9 m 5.9,-99.9 c -7.9,0 -14.5,6.2 -15,14.2 l -2.9,49.9 c -0.5,8.3 5.8,15.4 14.1,15.8 8.3,0.6 15.3,-5.8 15.8,-14 l 2.9,-50 c 0.5,-8.2 -5.8,-15.3 -14.1,-15.8 l -0.8,-0.1 m 5.8,-99.8 c -7.9,0 -14.5,6.2 -14.9,14.1 l -3,50 c -0.5,8.2 5.8,15.3 14.1,15.8 8.5,0.6 15.4,-5.8 15.9,-14.1 l 2.9,-49.9 c 0.5,-8.3 -5.8,-15.4 -14.1,-15.8 l -0.9,-0.1 m 5.9,-99.8 c -7.9,0 -14.5,6.2 -15,14.1 l -2.9,49.9 c -0.5,8.3 5.8,15.4 14.1,15.9 8.1,0.6 15.3,-5.8 15.8,-14.1 l 3,-49.9 c 0.4,-8.3 -5.9,-15.4 -14.1,-15.9 h -0.9 m 5.8,-99.8 c -7.8,0 -14.4,6.1 -14.9,14.1 l -2.9,49.9 c -0.5,8.3 5.8,15.4 14,15.8 8.5,0.6 15.4,-5.8 15.9,-14 l 2.9,-50 c 0.5,-8.2 -5.8,-15.3 -14.1,-15.8 h -0.9 m 5.9,-99.9 c -7.9,0 -14.5,6.2 -15,14.2 l -2.9,49.9 c -0.5,8.2 5.8,15.3 14.1,15.8 8.3,0.5 15.4,-5.8 15.9,-14.1 l 2.9,-49.9 c 0.5,-8.3 -5.8,-15.4 -14.1,-15.8 l -0.9,-0.1 m 5.9,-99.8 c -7.9,0 -14.5,6.2 -15,14.1 l -2.9,50 c -0.5,8.2 5.8,15.3 14.1,15.8 8.4,0.5 15.3,-5.8 15.8,-14.1 l 2.9,-49.9 c 0.5,-8.3 -5.8,-15.4 -14,-15.9 h -0.9 m 5.8,-99.8 c -7.9,0 -14.5,6.1 -14.9,14.1 l -3,49.9 c -0.5,8.3 5.9,15.4 14.1,15.9 8.3,0.5 15.4,-5.9 15.9,-14.1 l 2.9,-49.9 c 0.5,-8.3 -5.8,-15.4 -14.1,-15.9 h -0.9 m 5.9,-99.8 c -7.9,0 -14.5,6.1 -15,14.1 l -2.9,49.9 c -0.5,8.3 5.8,15.4 14.1,15.8 8.5,0.5 15.3,-5.8 15.8,-14 l 3,-50 c 0.5,-8.2 -5.9,-15.3 -14.1,-15.8 h -0.9 m 5.8,-99.9 c -7.8,0 -14.4,6.2 -14.9,14.1 l -3,50 c -0.4,8.2 5.9,15.3 14.1,15.8 8.4,0.5 15.4,-5.8 15.9,-14.1 l 2.9,-49.9 c 0.5,-8.3 -5.8,-15.4 -14.1,-15.8 l -0.9,-0.1 m 5.9,-99.8 c -7.9,0 -14.5,6.2 -15,14.1 l -2.9,49.9 c -0.5,8.3 5.8,15.4 14.1,15.9 8.3,0.6 15.4,-5.8 15.9,-14.1 l 2.9,-49.9 c 0.5,-8.3 -5.8,-15.4 -14.1,-15.9 h -0.9 m 5.9,-99.8 c -7.9,0 -14.5,6.1 -15,14.1 l -2.9,49.9 c -0.5,8.3 5.8,15.4 14.1,15.9 8.3,0.7 15.3,-5.9 15.8,-14.1 l 2.9,-50 c 0.5,-8.2 -5.8,-15.3 -14.1,-15.8 h -0.8 m 5.8,-99.9 c -7.9,0 -14.5,6.2 -14.9,14.2 l -3,49.9 c -0.5,8.2 5.9,15.3 14.1,15.8 8.2,0.5 15.4,-5.8 15.9,-14.1 l 2.9,-49.9 c 0.5,-8.2 -5.8,-15.4 -14.1,-15.8 l -0.9,-0.1 m 5.9,-99.8 c -7.9,0 -14.5,6.2 -15,14.1 l -2.9,50 c -0.5,8.2 5.8,15.3 14.1,15.8 8.3,0.7 15.4,-5.8 15.8,-14.1 l 3,-49.9 c 0.5,-8.3 -5.9,-15.4 -14.1,-15.8 l -0.9,-0.1 m 5.9,-99.8 c -7.9,0 -14.5,6.1 -15,14.1 l -2.9,49.9 c -0.5,8.3 5.8,15.4 14.1,15.9 8.4,0.6 15.3,-5.9 15.8,-14.1 l 2.9,-49.9 c 0.5,-8.3 -5.8,-15.4 -14.1,-15.9 h -0.8 m 5.8,-99.8 c -7.9,0 -14.5,6.1 -14.9,14.1 l -3,49.9 c -0.5,8.3 5.8,15.4 14.1,15.8 8.4,0.7 15.4,-5.8 15.9,-14.1 l 2.9,-49.9 c 0.5,-8.2 -5.8,-15.3 -14.1,-15.8 h -0.9 m 5.9,-99.9 c -7.9,0 -14.5,6.2 -15,14.1 l -2.9,50 c -0.5,8.2 5.8,15.3 14.1,15.8 8.5,0.7 15.3,-5.8 15.8,-14.1 l 3,-49.9 c 0.4,-8.3 -5.9,-15.4 -14.1,-15.8 l -0.9,-0.1 m 5.8,-99.8 c -7.9,0 -14.5,6.2 -14.9,14.1 l -3,49.9 c -0.5,8.3 5.9,15.4 14.1,15.9 8.4,0.6 15.4,-5.8 15.9,-14.1 l 2.9,-49.9 c 0.5,-8.3 -5.8,-15.4 -14.1,-15.9 h -0.9"
             style="fill:#1c056d;fill-opacity:1;fill-rule:nonzero;stroke:none"
             id="path32" />
        </g>
      </g>
      <path
         d="m 18946.1,12485.2 c 0,0 726.9,195.3 851.9,185.3 125,-10 969.4,-312.6 969.4,-312.6 L 20946,6876.1 h -1831.7 l -168.2,5609.1"
         style="fill:#ffffff;fill-opacity:1;fill-rule:nonzero;stroke:none"
         id="path34" />
      <path
         d="m 20845.3,15314.6 c 0,0 460.2,-147.1 511.4,-332.6 51.2,-185.5 -109.5,-842.5 -109.5,-842.5 l -542.8,587.5 140.9,587.6"
         style="fill:#1c056d;fill-opacity:1;fill-rule:nonzero;stroke:none"
         id="path36" />
      <path
         d="m 21166.4,14640.9 c -39.7,208.9 -198.6,377.4 -406.6,422 -368.9,79 -832.5,-71.3 -962.1,-216.1 -180.4,-201.6 90.3,-1067.7 165.1,-1263.5 0,0 -505.9,-836.2 -560.2,-962.9 l -0.8,-2.1 -427.6,-131.4 c 0,0 375.2,-1147.9 1185.4,-1305.6 0,0 509.5,384.3 534,1208.9 l -199.7,97 c 44.2,199.2 88.6,414.8 108.2,549.5 166.4,-77.8 340.7,-117.8 490.9,-76.5 337.1,92.7 163.2,1207.8 73.4,1680.7"
         style="fill:#fe8e9c;fill-opacity:1;fill-rule:nonzero;stroke:none"
         id="path38" />
      <g
         id="g40">
        <g
           id="g42"
           clip-path="url(#clipPath46)">
          <path
             d="m 21166.2,14777.5 c 0,0 5.7,-153.4 -653.3,-244.4 0,0 -104.8,-349.4 -353.3,-327.8 -248.6,21.6 0,0 0,0 0,0 -10.1,485.5 59.2,563.5 69.4,78.1 663.3,355.5 663.3,355.5 0,0 283.9,-210.2 284.1,-346.8"
             style="fill:#e57492;fill-opacity:1;fill-rule:nonzero;stroke:none"
             id="path48" />
        </g>
      </g>
      <path
         d="m 20979.7,14476 c 0,0 243.8,-544 155.1,-602.2 -88.7,-58.2 -308.4,67.7 -308.4,67.7 3.1,-39 2.6,-66.1 39.4,-79 106.6,-37.6 276.8,-102.5 321,-17.4 77.7,149.4 -207.1,630.9 -207.1,630.9"
         style="fill:#e57492;fill-opacity:1;fill-rule:nonzero;stroke:none"
         id="path50" />
      <path
         d="m 20602.1,13036.7 c 0,0 -333.6,231.7 -442.5,370.7 0,0 89.4,-472.8 400.3,-608 l 42.2,237.3"
         style="fill:#e57492;fill-opacity:1;fill-rule:nonzero;stroke:none"
         id="path52" />
      <path
         d="m 21159.9,13505.3 c 0,0 -144.4,-43.3 -245.4,54.1 0,0 -7.2,-184 144.3,-205.7 151.6,-21.6 101.1,151.6 101.1,151.6"
         style="fill:#ffffff;fill-opacity:1;fill-rule:nonzero;stroke:none"
         id="path54" />
      <path
         d="m 20282,14677.5 c 0,0 618.6,-106.6 664,304.5 45.5,411.1 -284.8,747.4 -284.8,747.4 0,0 118.9,-214 102.3,-269.1 -16.7,-55 -591.6,324.2 -1013.6,6.1 -422,-318 -452.6,-697.2 -391.4,-1045.8 61.2,-348.6 498.4,-1013.2 498.4,-1013.2 0,0 100.6,101.7 167.3,266 68.9,169.9 71.4,253.7 71.4,253.7 0,0 -390.3,197.3 -272.3,401.8 153.8,266.3 336.3,-123.6 336.3,-123.6 l 122.4,472.2"
         style="fill:#1b3d9e;fill-opacity:1;fill-rule:nonzero;stroke:none"
         id="path56" />
      <path
         d="m 16619.7,4400.1 c 0,0 0,-248.6 8.9,-281.1 8.9,-32.6 162.8,-233.8 168.7,-269.3 5.9,-35.5 -23.7,-653.9 -92.7,-665.9 -170.7,-29.6 -188.4,53.3 -194.4,94.7 -5.9,41.5 14.8,-68 -121.3,-56.2 -136.1,11.8 -142,153.9 -142,153.9 0,0 14.8,-139.1 -115.4,-82.9 -130.3,56.3 -130.3,174.6 -130.3,174.6 0,0 -68,-97.6 -139,-38.4 -71.1,59.1 -79.9,174.6 -74,189.3 5.9,14.8 14.8,346.3 85.8,458.7 68.8,109 156.8,381.8 156.8,381.8 l 588.9,-59.2"
         style="fill:#fe8e9c;fill-opacity:1;fill-rule:nonzero;stroke:none"
         id="path58" />
      <g
         id="g60">
        <g
           id="g62"
           clip-path="url(#clipPath66)">
          <path
             d="m 15715.5,3993.7 c 0,0 1024.9,220.7 1229.9,110.3 0,0 39.4,394.2 -7.9,402.1 -47.3,7.9 -1056.5,78.9 -1056.5,78.9 l -165.5,-591.3"
             style="fill:#e57492;fill-opacity:1;fill-rule:nonzero;stroke:none"
             id="path68" />
        </g>
      </g>
      <path
         d="m 25985.2,11181.3 c -17.4,112.1 -486.2,1242.3 -642.5,1217.2 -156.3,-25 -1754.9,-3213.6 -2016.4,-3008.4 -189.1,148.4 -1497.1,2446.6 -1497.1,2446.6 -16.3,73.6 -868.8,492.1 -1152.8,561.8 0,0 -133.9,-2619 -157.5,-3116.6 -23.5,-497.5 26.2,-3181.5 73.4,-3233.9 47.1,-52.4 872,-222.6 1618.3,-144 0,0 -576.1,2919.7 -576.1,3076.8 0,23.7 4.8,103.6 12.9,222.4 339.2,-533.1 1284.9,-1955.5 1750.7,-2007.5 920.2,-102.6 2604.4,3873.6 2587.1,3985.6"
         style="fill:#fc476a;fill-opacity:1;fill-rule:nonzero;stroke:none"
         id="path70" />
      <path
         d="m 19454,10248.3 c -194.5,724 -507.9,2236.9 -507.9,2236.9 0,0 -1253.5,-378.2 -1296.8,-518.7 0,0 -2011.7,-3392.2 -2021,-3828.2 -3.8,-178.9 -98.8,-3873.4 0,-3912.9 98.8,-39.6 1284.6,19.7 1343.9,79 59.3,59.3 79,3221.3 138.3,3359.6 38.3,89.3 545.8,775.3 906.2,1358.2 7,-76.4 10.9,-137.4 10.9,-178.8 0,-432.3 -291.8,-2961 -291.8,-2961 1242.8,-324.2 1956,280.9 1956,280.9 0,0 -43.2,3360.9 -237.8,4085"
         style="fill:#fc476a;fill-opacity:1;fill-rule:nonzero;stroke:none"
         id="path72" />
      <path
         d="m 18016.7,9022.2 c 0,0 439.7,592.8 408.9,1085.2 0,0 391.2,-1362.8 -430.2,-1758.5 l 21.3,673.3"
         style="fill:#d40221;fill-opacity:1;fill-rule:nonzero;stroke:none"
         id="path74" />
      <path
         d="m 25342.7,12398.5 c 0,0 -303.7,-399.1 116.2,-959.8 420,-560.7 526.2,-257.4 526.2,-257.4 0,0 -181.2,1059.8 -642.4,1217.2"
         style="fill:#d40221;fill-opacity:1;fill-rule:nonzero;stroke:none"
         id="path76" />
      <path
         d="m 21647.4,9203.2 c 0,0 179.3,1032.6 179.3,1506.7 0,0 496.2,-2592.5 1206.8,-2995.5 710.6,-402.9 1186.5,79.3 1186.5,79.3 0,0 -349.6,-642.6 -821.9,-598 -472.4,44.6 -1750.7,2007.5 -1750.7,2007.5"
         style="fill:#d40221;fill-opacity:1;fill-rule:nonzero;stroke:none"
         id="path78" />
      <path
         d="m 18946.1,12485.2 c 0,0 -384.3,-454.9 -384.3,-849.8 0,-394.8 623.8,-1018.6 623.8,-1018.6 0,0 -189.5,-529.1 -71.1,-805.5 118.5,-276.4 489.2,-970.8 489.2,-970.8 0,0 -23.3,1365.7 -86.4,1602.6 -63.2,236.8 -571.2,2042.1 -571.2,2042.1"
         style="fill:#d40221;fill-opacity:1;fill-rule:nonzero;stroke:none"
         id="path80" />
      <path
         d="m 20676.4,12398.5 c 0,0 612.8,-955.7 519.5,-1260.6 -93.3,-304.9 -428.3,-555 -428.3,-555 0,0 186.5,-270.9 139.6,-475.5 -46.9,-204.6 -422.1,-1266.9 -422.1,-1266.9 0,0 33.5,1836.2 55.8,2086.3 22.4,250.2 135.5,1471.7 135.5,1471.7"
         style="fill:#d40221;fill-opacity:1;fill-rule:nonzero;stroke:none"
         id="path82" />
      <path
         d="m 25915,13113.2 c 0,0 430,228 476,228.6 46.1,0.5 15.3,-137.3 -12.3,-168.2 -27.6,-30.9 -358.2,-277.5 -358.2,-277.5 0,0 380.8,74.5 508.9,58.1 128.1,-16.5 -119.2,-158.4 -183.7,-166.5 -64.4,-8.1 -315.6,-98.4 -315.6,-98.4 0,0 32.8,-285.9 2.7,-308.3 -30,-22.5 -224.1,-48.4 -224.1,-48.4 0,0 -147.8,320.6 -141.4,427.7 6.5,107.2 247.7,352.9 247.7,352.9"
         style="fill:#e57492;fill-opacity:1;fill-rule:nonzero;stroke:none"
         id="path84" />
      <path
         d="m 25260.6,11835.6 c 0,0 241.4,351.1 249.7,371.3 8.2,20.1 26.3,621 114.3,749.4 88,128.5 562.4,530 587.8,487.3 25.5,-42.7 14,-130 -23.3,-177.4 -37.4,-47.4 -335.1,-399.1 -335.1,-399.1 0,0 -84.9,-307.2 31.1,-417.5 0,0 473.4,411 479.3,381.7 5.9,-29.3 90.2,-108.9 24.6,-225.2 -65.7,-116.3 -327.5,-402.7 -327.5,-402.7 0,0 61.7,-247.3 -210,-390.1 l -224.7,-571.9 c 0,0 -277.4,257 -366.2,594.2"
         style="fill:#fe8e9c;fill-opacity:1;fill-rule:nonzero;stroke:none"
         id="path86" />
      <path
         d="m 28682.3,11467.5 h -1112.4 c -273.9,665.1 -660.6,1280.3 -1157.3,1803 5.2,37.7 1.3,71.3 -21.3,71.3 -0.1,0 -0.2,0 -0.3,0 -6,-0.1 -18.8,-4.2 -36.4,-11.1 -159.9,163.1 -330.6,316.7 -512.3,459.6 -288.9,227.2 -594.2,430.4 -910.3,616.8 h 3750.3 c 75.5,0 136.8,-61.3 136.8,-136.8 v -2665.9 c 0,-75.6 -61.3,-136.9 -136.8,-136.9"
         style="fill:#d5dcf7;fill-opacity:1;fill-rule:nonzero;stroke:none"
         id="path88" />
      <path
         d="m 27569.9,11467.5 h -1650.3 c -23.6,86.8 -53.8,186 -91.3,286.8 l 23.2,59 c 271.7,142.8 210,390.1 210,390.1 0,0 261.8,286.4 327.5,402.7 48.4,85.7 15.3,151.5 -7.8,191.8 89.9,34.5 258.7,142.1 148.2,156.3 -12.7,1.6 -27.9,2.3 -45,2.3 -155,0 -463.9,-60.4 -463.9,-60.4 0,0 330.6,246.6 358.2,277.5 13.9,15.6 28.7,58.4 33.9,96.9 496.7,-522.7 883.4,-1137.9 1157.3,-1803 m -2815.5,0 h -850 c -75.6,0 -136.9,61.3 -136.9,136.9 v 2665.9 c 0,75.5 61.3,136.8 136.9,136.8 H 24932 c 316.1,-186.4 621.4,-389.6 910.3,-616.8 181.7,-142.9 352.4,-296.5 512.3,-459.6 -41.9,-16.6 -111.1,-49.6 -182.3,-85.1 7.6,9.2 13.3,16.2 16.8,20.6 37.3,47.4 48.8,134.7 23.3,177.4 -1.2,2.2 -3.6,3.2 -7.1,3.2 -64.9,0 -497.1,-368.4 -580.7,-490.5 -69.4,-101.3 -95.3,-496.5 -107.2,-668.8 -38.2,36.4 -79,66.7 -122.4,88.8 -17.6,14.7 -33.4,22.6 -47,22.6 -1.8,0 -3.6,-0.1 -5.3,-0.4 -55.5,-8.8 -293.3,-417.4 -588.3,-931"
         style="fill:#ced7f7;fill-opacity:1;fill-rule:nonzero;stroke:none"
         id="path90" />
      <path
         d="m 25436.9,11467.5 h -682.5 c 295,513.6 532.8,922.2 588.3,931 1.7,0.3 3.5,0.4 5.3,0.4 13.6,0 29.4,-7.9 47,-22.6 -17,8.7 -34.4,16.1 -52.3,22.2 0,0 -167.3,-219.9 -81.8,-562.5 -0.2,-0.3 -0.3,-0.4 -0.3,-0.4 2.6,-9.8 5.3,-19.5 8.2,-29.1 25.5,-89.2 68.3,-186.2 135.4,-289.5 10.9,-17.1 21.8,-33.6 32.7,-49.5"
         style="fill:#d3578c;fill-opacity:1;fill-rule:nonzero;stroke:none"
         id="path92" />
      <path
         d="m 26040.1,12582.3 c -4.4,58.5 -10,107 -10,107 0,0 138.5,49.8 236.2,78.7 -65.1,-50.7 -151.9,-122.9 -226.2,-185.7"
         style="fill:#ced7f7;fill-opacity:1;fill-rule:nonzero;stroke:none"
         id="path94" />
      <path
         d="m 25919.6,11467.5 h -203.9 l 112.6,286.8 c 37.5,-100.8 67.7,-200 91.3,-286.8 m -515.4,49.5 c -67.1,103.3 -109.9,200.3 -135.4,289.5 32.1,-107.4 82.5,-205.9 135.4,-289.5 m -143.3,319 c -85.5,342.6 81.8,562.5 81.8,562.5 17.9,-6.1 35.3,-13.5 52.3,-22.2 43.4,-22.1 84.2,-52.4 122.4,-88.8 -3.2,-46.2 -5.4,-76.4 -7.1,-80.6 -8.1,-19.8 -240.3,-357.6 -249.4,-370.9"
         style="fill:#b62557;fill-opacity:1;fill-rule:nonzero;stroke:none"
         id="path96" />
      <path
         d="m 25885.1,12449.6 c -116,110.3 -31.1,417.5 -31.1,417.5 0,0 244.9,289.4 318.3,378.5 71.2,35.5 140.4,68.5 182.3,85.1 17.6,6.9 30.4,11 36.4,11.1 0.1,0 0.2,0 0.3,0 22.6,0 26.5,-33.6 21.3,-71.3 -5.2,-38.5 -20,-81.3 -33.9,-96.9 -27.6,-30.9 -358.2,-277.5 -358.2,-277.5 0,0 308.9,60.4 463.9,60.4 17.1,0 32.3,-0.7 45,-2.3 110.5,-14.2 -58.3,-121.8 -148.2,-156.3 -8.2,14.5 -15.2,25.7 -16.8,33.4 -0.2,1 -0.9,1.5 -2.2,1.5 -9.3,0 -46.3,-26.2 -95.9,-64.8 -97.7,-28.9 -236.2,-78.7 -236.2,-78.7 0,0 5.6,-48.5 10,-107 -85.8,-72.6 -155,-132.7 -155,-132.7"
         style="fill:#c277a9;fill-opacity:1;fill-rule:nonzero;stroke:none"
         id="path98" />
      <path
         d="m 25715.7,11467.5 h -278.8 c -10.9,15.9 -21.8,32.4 -32.7,49.5 -52.9,83.6 -103.3,182.1 -135.4,289.5 -2.9,9.6 -5.6,19.3 -8.2,29.1 0,0 0.1,0.1 0.3,0.4 9.1,13.3 241.3,351.1 249.4,370.9 1.7,4.2 3.9,34.4 7.1,80.6 11.9,172.3 37.8,567.5 107.2,668.8 83.6,122.1 515.8,490.5 580.7,490.5 3.5,0 5.9,-1 7.1,-3.2 25.5,-42.7 14,-130 -23.3,-177.4 -3.5,-4.4 -9.2,-11.4 -16.8,-20.6 -73.4,-89.1 -318.3,-378.5 -318.3,-378.5 0,0 -84.9,-307.2 31.1,-417.5 0,0 69.2,60.1 155,132.7 74.3,62.8 161.1,135 226.2,185.7 49.6,38.6 86.6,64.8 95.9,64.8 1.3,0 2,-0.5 2.2,-1.5 1.6,-7.7 8.6,-18.9 16.8,-33.4 23.1,-40.3 56.2,-106.1 7.8,-191.8 -65.7,-116.3 -327.5,-402.7 -327.5,-402.7 0,0 61.7,-247.3 -210,-390.1 l -23.2,-59 -112.6,-286.8"
         style="fill:#d48ab0;fill-opacity:1;fill-rule:nonzero;stroke:none"
         id="path100" />
      <path
         d="m 25511.3,13776.2 h -1249.5 c -29.6,0 -53.5,23.9 -53.5,53.5 v 185.6 c 0,29.6 23.9,53.6 53.5,53.6 h 1249.5 c 29.6,0 53.6,-24 53.6,-53.6 v -185.6 c 0,-29.6 -24,-53.5 -53.6,-53.5"
         style="fill:#ffffff;fill-opacity:1;fill-rule:nonzero;stroke:none"
         id="path102" />
      <path
         d="m 25511.3,13307 h -1249.5 c -29.6,0 -53.5,23.9 -53.5,53.5 v 185.6 c 0,29.6 23.9,53.6 53.5,53.6 h 1249.5 c 29.6,0 53.6,-24 53.6,-53.6 v -185.6 c 0,-29.6 -24,-53.5 -53.6,-53.5"
         style="fill:#ffffff;fill-opacity:1;fill-rule:nonzero;stroke:none"
         id="path104" />
      <path
         d="m 24893.3,12837.8 h -645.9 c -21.6,0 -39.1,17.5 -39.1,39.1 v 214.4 c 0,21.6 17.5,39.1 39.1,39.1 h 645.9 c 21.6,0 39.2,-17.5 39.2,-39.1 v -214.4 c 0,-21.6 -17.6,-39.1 -39.2,-39.1"
         style="fill:#6880e4;fill-opacity:1;fill-rule:nonzero;stroke:none"
         id="path106" />
      <path
         d="m 27472.9,14084.2 v -665.3 h -665.3 c 0,-367.4 297.9,-665.2 665.3,-665.2 367.4,0 665.2,297.8 665.2,665.2 0,367.4 -297.8,665.3 -665.2,665.3"
         style="fill:#ffffff;fill-opacity:1;fill-rule:nonzero;stroke:none"
         id="path108" />
      <path
         d="m 27409.4,14153 c -367.4,0 -665.3,-297.9 -665.3,-665.3 h 665.3 v 665.3"
         style="fill:#6880e4;fill-opacity:1;fill-rule:nonzero;stroke:none"
         id="path110" />
      <path
         d="m 27553.4,11667 h -224.5 v 404.4 h 224.5 V 11667"
         style="fill:#ffffff;fill-opacity:1;fill-rule:nonzero;stroke:none"
         id="path112" />
      <path
         d="m 27951,11667 h -224.5 v 611.4 H 27951 V 11667"
         style="fill:#ffffff;fill-opacity:1;fill-rule:nonzero;stroke:none"
         id="path114" />
      <path
         d="m 28348.5,11667 h -224.4 v 808.9 h 224.4 V 11667"
         style="fill:#6880e4;fill-opacity:1;fill-rule:nonzero;stroke:none"
         id="path116" />
      <path
         d="m 26928.2,12350.8 h -2689.6 c -16.7,0 -30.3,13.6 -30.3,30.4 0,16.7 13.6,30.3 30.3,30.3 h 2689.6 c 16.8,0 30.4,-13.6 30.4,-30.3 0,-16.8 -13.6,-30.4 -30.4,-30.4"
         style="fill:#ffffff;fill-opacity:1;fill-rule:nonzero;stroke:none"
         id="path118" />
      <path
         d="m 26928.2,12159.6 h -2689.6 c -16.7,0 -30.3,13.6 -30.3,30.4 0,16.8 13.6,30.4 30.3,30.4 h 2689.6 c 16.8,0 30.4,-13.6 30.4,-30.4 0,-16.8 -13.6,-30.4 -30.4,-30.4"
         style="fill:#ffffff;fill-opacity:1;fill-rule:nonzero;stroke:none"
         id="path120" />
      <path
         d="m 26928.2,11968.5 h -2689.6 c -16.7,0 -30.3,13.6 -30.3,30.3 0,16.8 13.6,30.4 30.3,30.4 h 2689.6 c 16.8,0 30.4,-13.6 30.4,-30.4 0,-16.7 -13.6,-30.3 -30.4,-30.3"
         style="fill:#ffffff;fill-opacity:1;fill-rule:nonzero;stroke:none"
         id="path122" />
      <path
         d="m 26928.2,11777.3 h -2689.6 c -16.7,0 -30.3,13.6 -30.3,30.4 v 0 c 0,16.7 13.6,30.4 30.3,30.4 h 2689.6 c 16.8,0 30.4,-13.7 30.4,-30.4 v 0 c 0,-16.8 -13.6,-30.4 -30.4,-30.4"
         style="fill:#ffffff;fill-opacity:1;fill-rule:nonzero;stroke:none"
         id="path124" />
      <path
         d="m 25408,11777.3 h -1169.4 c -16.7,0 -30.3,13.6 -30.3,30.4 v 0 c 0,16.7 13.6,30.4 30.3,30.4 H 25408 c 16.8,0 30.4,-13.7 30.4,-30.4 v 0 c 0,-16.8 -13.6,-30.4 -30.4,-30.4"
         style="fill:#6880e4;fill-opacity:1;fill-rule:nonzero;stroke:none"
         id="path126" />
      <path
         d="m 26428.7,11968.5 h -1169.3 c -16.8,0 -30.4,13.6 -30.4,30.3 0,16.8 13.6,30.4 30.4,30.4 h 1169.3 c 16.8,0 30.4,-13.6 30.4,-30.4 0,-16.7 -13.6,-30.3 -30.4,-30.3"
         style="fill:#6880e4;fill-opacity:1;fill-rule:nonzero;stroke:none"
         id="path128" />
      <path
         d="m 25334,12159.6 h -689.7 c -16.8,0 -30.4,13.6 -30.4,30.4 0,16.8 13.6,30.4 30.4,30.4 h 689.7 c 16.8,0 30.4,-13.6 30.4,-30.4 0,-16.8 -13.6,-30.4 -30.4,-30.4"
         style="fill:#6880e4;fill-opacity:1;fill-rule:nonzero;stroke:none"
         id="path130" />
      <path
         d="m 26532.1,12350.8 h -689.7 c -16.8,0 -30.4,13.6 -30.4,30.4 0,16.7 13.6,30.3 30.4,30.3 h 689.7 c 16.8,0 30.4,-13.6 30.4,-30.3 0,-16.8 -13.6,-30.4 -30.4,-30.4"
         style="fill:#6880e4;fill-opacity:1;fill-rule:nonzero;stroke:none"
         id="path132" />
      <path
         d="m 14796.7,16612.8 c -226.3,0 -410.2,-180.3 -416.5,-405 L 12006,15886.4 c -77.1,342.3 -382.9,597.9 -748.5,597.9 -423.8,0 -767.3,-343.6 -767.3,-767.4 0,-38.1 2.8,-75.5 8.1,-112.1 l -1688.16,-403.9 c -48.38,95.9 -147.66,161.7 -262.35,161.7 -97.74,0 -184.28,-47.8 -237.69,-121.2 l -1282.9,536.5 c 9.77,37.8 14.97,77.5 14.97,118.5 0,261.4 -211.95,473.4 -473.4,473.4 -261.45,0 -473.4,-212 -473.4,-473.4 0,-261.5 211.95,-473.4 473.4,-473.4 172.57,0 323.52,92.4 406.25,230.3 l 1282.97,-536.5 c -2.57,-15.6 -3.97,-31.7 -3.97,-48 0,-162.3 131.52,-293.8 293.77,-293.8 162.25,0 293.78,131.5 293.78,293.8 l -0.02,0.8 1688.05,403.8 c 101.8,-304.4 389.2,-523.8 727.9,-523.8 423.8,0 767.4,343.6 767.4,767.3 0,12 -0.4,23.9 -0.9,35.7 l 2374.1,321.4 c 52.2,-170.6 210.9,-294.7 398.6,-294.7 230.1,0 416.7,186.6 416.7,416.8 0,230.1 -186.6,416.7 -416.7,416.7"
         style="fill:#d4dfff;fill-opacity:1;fill-rule:nonzero;stroke:none"
         id="path134" />
      <path
         d="M 24680.1,3451.7 H 22288 c -0.7,516.2 -2.1,1051.4 -4.9,1325.1 334.2,-19.3 667.9,-31.7 1000,-31.7 564.2,0 1124.5,35.7 1679.1,133.8 V 3733.8 c 0,-155.8 -126.3,-282.1 -282.1,-282.1 m -4431.5,0 h -177.1 l 87,893.8 90.1,-893.8"
         style="fill:#d5dcf7;fill-opacity:1;fill-rule:nonzero;stroke:none"
         id="path136" />
      <path
         d="m 23283.1,4745.1 c -332.1,0 -665.8,12.4 -1000,31.7 -0.8,85.7 -1.8,145.8 -3,171.7 -11.6,261.3 -73.6,606.7 -150.2,948 27,2.1 53.9,4.7 80.7,7.5 0,0 -59.7,302.7 -140.8,718.5 h 2892.4 V 4878.9 c -554.6,-98.1 -1114.9,-133.8 -1679.1,-133.8"
         style="fill:#ced7f7;fill-opacity:1;fill-rule:nonzero;stroke:none"
         id="path138" />
      <path
         d="m 22288,3451.7 h -883.5 l -1.1,17.5 c -0.4,7.9 -7.1,14.1 -14.7,14.1 -0.4,0 -0.8,0 -1.1,0 -8.3,-0.5 -14.6,-7.6 -14.1,-15.9 l 0.9,-15.7 h -1125.8 l -90.1,893.8 -87,-893.8 h -1085.3 l 3.7,42.7 c 0.6,8.3 -5.5,15.6 -13.7,16.3 -0.4,0 -0.7,0 -1,0 -7.9,0 -14.6,-5.8 -15.3,-13.7 l -3.8,-45.3 h -341.4 c -155.8,0 -282,126.3 -282,282.1 v 2055.8 c 40.2,-1.8 79.6,-2.7 118.1,-2.7 284.9,0 524.6,48 715.1,109.8 -1.9,-2.2 -3.1,-5.1 -3.4,-8.3 l -4.2,-49.8 c -0.7,-8.3 5.4,-15.5 13.7,-16.2 l 1.2,-0.1 c 7.7,0 14.3,5.9 15,13.8 l 4.2,49.8 c 0.6,7.4 -4.3,14 -11.3,15.8 332.9,110.7 510.7,261.6 510.7,261.6 0,0 -1.5,119.5 -5.3,318.1 h 498 l -26,-2135.9 c 0,0 316.5,170.5 354.4,326.6 21.8,89.8 46.8,849.6 64.1,1479.4 5,-61.3 10.2,-97.8 15.3,-103.5 25.8,-28.7 285.3,-92.8 637.4,-132 l 0.2,-2.8 c 0.5,-7.9 7.1,-14.1 15,-14.1 h 0.9 c 7.5,0.5 13.4,6.4 14,13.7 165.6,-17.5 350.2,-29.2 539.7,-29.2 109.4,0 220.4,3.9 330.4,12.9 76.6,-341.3 138.6,-686.7 150.2,-948 1.2,-25.9 2.2,-86 3,-171.7 2.8,-273.7 4.2,-808.9 4.9,-1325.1 m -905.3,131.4 c -0.3,0 -0.6,0 -1,0 -8.3,-0.5 -14.6,-7.6 -14.1,-15.8 l 3,-50 c 0.4,-7.9 7,-14.1 14.9,-14.1 l 0.9,0.1 c 8.3,0.4 14.6,7.5 14.1,15.8 l -2.9,49.9 c -0.5,8 -6.9,14.1 -14.9,14.1 m -2399.1,27.2 c -7.8,0 -14.5,-5.8 -15.2,-13.7 l -4.2,-49.8 c -0.7,-8.3 5.4,-15.5 13.7,-16.2 l 1.2,-0.1 c 7.7,0 14.3,5.9 15,13.8 l 4.2,49.8 c 0.7,8.2 -5.4,15.5 -13.7,16.2 -0.3,0 -0.6,0 -1,0 m 2393.3,72.7 c -0.4,0 -0.7,0 -1,-0.1 -8.3,-0.4 -14.6,-7.5 -14.1,-15.8 l 2.9,-49.9 c 0.5,-8 7.1,-14.2 15,-14.2 l 0.8,0.1 c 8.3,0.5 14.6,7.6 14.1,15.8 l -2.9,50 c -0.5,7.9 -7,14.1 -14.8,14.1 m -2384.9,27 c -7.8,0 -14.5,-5.8 -15.2,-13.7 l -4.2,-49.9 c -0.7,-8.2 5.4,-15.5 13.7,-16.2 h 1.3 c 7.7,0 14.2,5.9 14.9,13.7 l 4.2,49.8 c 0.7,8.3 -5.4,15.5 -13.7,16.2 -0.3,0.1 -0.6,0.1 -1,0.1 m 2379,72.8 c -0.3,0 -0.7,0 -1,0 -8.3,-0.5 -14.6,-7.6 -14.1,-15.9 l 2.9,-49.9 c 0.5,-8 7.1,-14.1 15,-14.1 h 0.9 c 8.3,0.5 14.6,7.6 14.1,15.9 l -3,49.9 c -0.4,7.9 -6.8,14.1 -14.8,14.1 m -2370.5,26.8 c -7.8,0 -14.5,-5.8 -15.2,-13.7 l -4.3,-49.8 c -0.6,-8.3 5.5,-15.5 13.7,-16.2 l 1.3,-0.1 c 7.7,0 14.3,5.9 14.9,13.7 l 4.3,49.9 c 0.7,8.2 -5.5,15.5 -13.7,16.2 -0.3,0 -0.7,0 -1,0 m 2364.7,73 c -0.4,0 -0.7,0 -1.1,0 -8.2,-0.5 -14.5,-7.6 -14.1,-15.9 l 3,-49.9 c 0.4,-7.9 7,-14.1 14.9,-14.1 h 0.9 c 8.3,0.5 14.6,7.6 14.1,15.9 l -2.9,49.9 c -0.5,7.9 -7,14.1 -14.8,14.1 m -2356.3,26.7 c -7.8,0 -14.5,-5.8 -15.2,-13.8 l -4.2,-49.8 c -0.7,-8.2 5.4,-15.5 13.7,-16.2 h 1.3 c 7.7,0 14.2,5.9 14.9,13.7 l 4.2,49.8 c 0.7,8.3 -5.4,15.5 -13.7,16.2 -0.3,0.1 -0.6,0.1 -1,0.1 m 2350.1,73.1 c -0.2,0 -0.5,0 -0.7,0 -8.3,-0.5 -14.6,-7.6 -14.1,-15.8 l 2.9,-49.9 c 0.5,-8 7.1,-14.2 15,-14.2 l 0.9,0.1 c 8.2,0.4 14.6,7.5 14.1,15.8 l -3,49.9 c -0.4,8 -7.2,14.1 -15.1,14.1 m -2341.7,26.5 c -7.7,0 -14.5,-5.8 -15.2,-13.7 l -4.2,-49.8 c -0.7,-8.3 5.5,-15.5 13.7,-16.2 l 1.3,-0.1 c 7.7,0 14.3,5.9 14.9,13.7 l 4.3,49.8 c 0.6,8.3 -5.5,15.6 -13.7,16.3 -0.4,0 -0.7,0 -1.1,0 m 2336.2,73.4 c -0.4,0 -0.7,0 -1.1,-0.1 -8.2,-0.4 -14.6,-7.5 -14.1,-15.8 l 3,-49.9 c 0.4,-8 7,-14.1 14.9,-14.1 h 0.9 c 8.3,0.5 14.6,7.6 14.1,15.8 l -2.9,50 c -0.5,7.9 -7,14.1 -14.8,14.1 m -2328,26.3 c -7.8,0 -14.3,-6 -14.9,-13.8 l -4.2,-49.8 c -0.7,-8.3 5.4,-15.5 13.7,-16.2 l 1.2,-0.1 c 7.7,0 14.3,5.9 15,13.8 l 4.2,49.8 c 0.7,8.3 -5.4,15.5 -13.7,16.2 -0.5,0 -0.9,0.1 -1.3,0.1 m 2322.2,73.5 c -0.4,0 -0.8,0 -1.1,0 -8.3,-0.5 -14.6,-7.6 -14.1,-15.9 l 2.9,-49.9 c 0.5,-8 7.1,-14.1 15,-14.1 h 0.9 c 8.2,0.5 14.5,7.6 14,15.9 l -2.9,49.9 c -0.5,7.9 -6.8,14.1 -14.7,14.1 m -2313.5,26.1 c -7.9,0 -14.5,-5.8 -15.2,-13.7 l -4.2,-49.8 c -0.7,-8.3 5.4,-15.6 13.7,-16.3 h 1.3 c 7.7,0 14.2,5.9 14.9,13.7 l 4.2,49.8 c 0.7,8.3 -5.4,15.6 -13.7,16.3 -0.3,0 -0.7,0 -1,0 m 2307.6,73.7 c -0.3,0 -0.7,0 -1.1,0 -8.3,-0.5 -14.6,-7.6 -14.1,-15.8 l 2.9,-50 c 0.5,-7.9 7.1,-14.1 15,-14.1 l 0.9,0.1 c 8.3,0.4 14.6,7.5 14.1,15.8 l -2.9,49.9 c -0.5,7.9 -6.8,14.1 -14.8,14.1 m -2299.2,25.9 c -7.7,0 -14.5,-5.8 -15.1,-13.7 l -4.3,-49.8 c -0.6,-8.3 5.5,-15.5 13.7,-16.2 l 1.3,-0.1 c 7.7,0 14.3,5.9 14.9,13.8 l 4.3,49.8 c 0.7,8.2 -5.5,15.5 -13.7,16.2 -0.4,0 -0.7,0 -1.1,0 m 2293.4,74 c -0.4,0 -0.8,0 -1.2,-0.1 -8.2,-0.4 -14.5,-7.6 -14.1,-15.8 l 3,-49.9 c 0.4,-8 7,-14.2 14.9,-14.2 l 0.9,0.1 c 8.3,0.5 14.6,7.6 14.1,15.8 l -2.9,49.9 c -0.5,7.9 -6.8,14.2 -14.7,14.2 m -2284.9,25.7 c -7.8,0 -14.5,-5.8 -15.2,-13.7 l -4.2,-49.9 c -0.7,-8.2 5.4,-15.5 13.7,-16.2 h 1.3 c 7.7,0 14.2,5.9 14.9,13.7 l 4.2,49.8 c 0.7,8.3 -5.4,15.5 -13.7,16.2 -0.3,0.1 -0.7,0.1 -1,0.1 m 2279,74.1 c -0.3,0 -0.7,0 -1.1,0 -8.3,-0.5 -14.6,-7.6 -14.1,-15.9 l 2.9,-49.9 c 0.5,-8 7.1,-14.1 15,-14.1 h 0.9 c 8.2,0.5 14.5,7.6 14,15.9 l -2.9,49.9 c -0.4,7.9 -6.7,14.1 -14.7,14.1 m -2270.6,25.5 c -7.7,0 -14.5,-5.8 -15.2,-13.7 l -4.2,-49.8 c -0.7,-8.3 5.5,-15.5 13.7,-16.2 l 1.3,-0.1 c 7.7,0 14.3,5.9 14.9,13.7 l 4.2,49.9 c 0.7,8.2 -5.4,15.5 -13.6,16.2 -0.4,0 -0.7,0 -1.1,0 m 2264.8,74.3 c -0.4,0 -0.8,0 -1.2,0 -8.3,-0.5 -14.6,-7.6 -14.1,-15.9 l 2.9,-49.9 c 0.5,-7.9 7.1,-14.1 15,-14.1 h 0.9 c 8.3,0.5 14.6,7.6 14.1,15.9 l -2.9,49.9 c -0.5,7.9 -6.8,14.1 -14.7,14.1 m -2256.4,25.4 c -7.9,0 -14.4,-5.9 -15.1,-13.8 l -4.2,-49.8 c -0.7,-8.2 5.4,-15.5 13.6,-16.2 h 1.3 c 7.7,0 14.3,5.9 15,13.7 l 4.2,49.8 c 0.7,8.3 -5.4,15.5 -13.7,16.2 -0.4,0.1 -0.7,0.1 -1.1,0.1 m 2250.1,74.4 c -0.3,0 -0.5,0 -0.7,0 -8.3,-0.5 -14.6,-7.6 -14.1,-15.8 l 2.9,-49.9 c 0.5,-8 7.1,-14.2 15,-14.2 l 0.8,0.1 c 8.3,0.4 14.6,7.5 14.1,15.8 l -2.9,49.9 c -0.5,8.1 -7.2,14.1 -15.1,14.1 m -2241.7,25.2 c -7.8,0 -14.4,-5.8 -15.1,-13.7 l -4.2,-49.8 c -0.7,-8.3 5.4,-15.5 13.7,-16.3 h 1.3 c 7.7,0 14.2,5.9 14.9,13.7 l 4.2,49.9 c 0.7,8.2 -5.4,15.5 -13.7,16.2 -0.3,0 -0.7,0 -1.1,0 m 2236.3,74.7 c -0.4,0 -0.8,0 -1.2,-0.1 -8.3,-0.4 -14.6,-7.5 -14.1,-15.8 l 2.9,-49.9 c 0.5,-8 7.1,-14.1 15,-14.1 h 0.9 c 8.3,0.5 14.6,7.6 14.1,15.8 l -3,50 c -0.4,7.8 -6.8,14.1 -14.6,14.1 m -2228.2,25 c -7.7,0 -14.1,-6 -14.7,-13.8 l -4.3,-49.8 c -0.7,-8.3 5.5,-15.5 13.7,-16.2 l 1.3,-0.1 c 7.7,0 14.3,6 14.9,13.8 l 4.3,49.8 c 0.7,8.3 -5.5,15.5 -13.7,16.2 -0.5,0.1 -1,0.1 -1.5,0.1 m 2222.4,74.8 c -0.4,0 -0.8,0 -1.3,0 -8.2,-0.5 -14.5,-7.6 -14.1,-15.9 l 3,-49.9 c 0.4,-8 7,-14.1 14.9,-14.1 h 0.9 c 8.3,0.5 14.6,7.6 14.1,15.9 l -2.9,49.9 c -0.5,7.8 -6.7,14.1 -14.6,14.1 m -2213.6,24.8 c -7.7,0 -14.4,-5.8 -15.1,-13.7 l -4.2,-49.8 c -0.7,-8.3 5.4,-15.6 13.7,-16.3 h 1.2 c 7.8,0 14.3,5.9 15,13.7 l 4.2,49.8 c 0.7,8.3 -5.4,15.6 -13.7,16.3 -0.4,0 -0.7,0 -1.1,0 m 2207.7,75.1 c -0.4,0 -0.8,-0.1 -1.2,-0.1 -8.3,-0.5 -14.6,-7.6 -14.1,-15.8 l 2.9,-50 c 0.5,-7.9 7.1,-14.1 15,-14.1 l 0.9,0.1 c 8.2,0.4 14.5,7.5 14.1,15.8 l -3,49.9 c -0.4,7.9 -6.8,14.2 -14.6,14.2 m -2199.3,24.5 c -7.9,0 -14.4,-5.8 -15.1,-13.7 l -4.2,-49.8 c -0.7,-8.3 5.4,-15.5 13.7,-16.2 l 1.3,-0.1 c 7.7,0 14.3,5.9 14.9,13.8 l 4.2,49.8 c 0.7,8.2 -5.4,15.5 -13.6,16.2 -0.4,0 -0.8,0 -1.2,0 m 2193.5,75.3 c -0.4,0 -0.9,0 -1.3,-0.1 -8.3,-0.4 -14.6,-7.6 -14.1,-15.8 l 3,-49.9 c 0.4,-8 7,-14.2 14.9,-14.2 l 0.9,0.1 c 8.3,0.5 14.6,7.6 14.1,15.8 l -2.9,49.9 c -0.5,7.9 -6.7,14.2 -14.6,14.2 M 19110,5105 c -7.8,0 -14.4,-5.9 -15,-13.7 l -4.2,-49.9 c -0.7,-8.2 5.4,-15.5 13.6,-16.2 h 1.3 c 7.7,0 14.3,5.9 15,13.7 l 4.2,49.8 c 0.7,8.3 -5.4,15.6 -13.7,16.2 -0.4,0.1 -0.8,0.1 -1.2,0.1 m 2178.8,75.4 c -0.3,0 -0.6,0 -0.8,0 -8.3,-0.5 -14.6,-7.6 -14.1,-15.9 l 2.9,-49.9 c 0.5,-8 7.1,-14.1 15,-14.1 h 0.8 c 8.3,0.5 14.6,7.6 14.1,15.9 l -2.9,49.9 c -0.5,7.9 -7,14.1 -15,14.1 m -2170.4,24.2 c -7.8,0 -14.3,-5.8 -15,-13.7 l -4.2,-49.8 c -0.7,-8.3 5.4,-15.5 13.7,-16.2 l 1.3,-0.1 c 7.7,0 14.2,5.9 14.9,13.7 l 4.2,49.9 c 0.7,8.2 -5.4,15.5 -13.7,16.2 -0.4,0 -0.8,0 -1.2,0 m 2164.6,75.6 c -0.3,0 -0.6,0 -0.9,0 -8.3,-0.5 -14.6,-7.6 -14.1,-15.9 l 2.9,-49.9 c 0.5,-7.9 7.1,-14.1 15,-14.1 h 0.9 c 8.3,0.5 14.6,7.6 14.1,15.9 l -3,49.9 c -0.4,8 -6.8,14.1 -14.9,14.1 m -2156.1,24.1 c -7.7,0 -14.4,-5.9 -15,-13.8 l -4.3,-49.8 c -0.7,-8.2 5.5,-15.5 13.7,-16.2 h 1.3 c 7.7,0 14.3,5.9 14.9,13.7 l 4.3,49.8 c 0.7,8.3 -5.5,15.5 -13.7,16.2 -0.4,0.1 -0.8,0.1 -1.2,0.1 m 2150.2,75.7 c -0.3,0 -0.6,0 -0.9,0 -8.2,-0.5 -14.6,-7.6 -14.1,-15.8 l 3,-49.9 c 0.4,-8 7,-14.2 14.9,-14.2 l 0.9,0.1 c 8.3,0.4 14.6,7.5 14.1,15.8 l -2.9,49.9 c -0.5,8 -7,14.1 -15,14.1 m -2141.8,23.9 c -7.8,0 -14.3,-5.9 -15,-13.7 l -4.2,-49.8 c -0.7,-8.3 5.4,-15.5 13.7,-16.3 h 1.2 c 7.8,0 14.3,5.9 15,13.7 l 4.2,49.9 c 0.7,8.2 -5.4,15.5 -13.7,16.2 -0.4,0 -0.8,0 -1.2,0 m 2136,76 c -0.3,0 -0.6,0 -0.9,-0.1 -8.3,-0.4 -14.6,-7.5 -14.1,-15.8 l 2.9,-49.9 c 0.5,-8 7.1,-14.1 15,-14.1 h 0.9 c 8.2,0.5 14.5,7.6 14,15.8 l -2.9,50 c -0.5,7.9 -6.8,14.1 -14.9,14.1 m -2127.7,23.7 c -7.8,0 -14.2,-6 -14.9,-13.8 l -4.2,-49.8 c -0.7,-8.2 5.4,-15.5 13.7,-16.2 l 1.3,-0.1 c 7.7,0 14.2,6 14.9,13.8 l 4.2,49.8 c 0.7,8.3 -5.4,15.5 -13.6,16.2 -0.5,0 -1,0.1 -1.4,0.1 m 2121.8,76.1 c -0.3,0 -0.6,0 -0.9,0 -8.3,-0.5 -14.6,-7.6 -14.1,-15.9 l 2.9,-49.9 c 0.5,-8 7.1,-14.1 15,-14.1 h 0.9 c 8.3,0.5 14.6,7.6 14.1,15.9 l -2.9,49.9 c -0.5,7.9 -7,14.1 -15,14.1 m -2113.1,23.5 c -7.9,0 -14.5,-5.8 -15.1,-13.7 l -4.2,-49.8 c -0.7,-8.3 5.4,-15.6 13.6,-16.3 h 1.3 c 7.7,0 14.3,5.9 14.9,13.7 l 4.3,49.8 c 0.7,8.3 -5.5,15.6 -13.7,16.3 -0.4,0 -0.7,0 -1.1,0 m 2107.3,76.3 c -0.3,0 -0.6,0 -1,0 -8.2,-0.5 -14.5,-7.6 -14,-15.8 l 2.9,-50 c 0.5,-7.9 7.1,-14.1 14.9,-14.1 l 0.9,0.1 c 8.3,0.4 14.6,7.5 14.1,15.8 l -2.9,49.9 c -0.5,8 -6.9,14.1 -14.9,14.1 m -2099.1,23.4 c -7.6,0 -14.2,-6 -14.9,-13.8 l -4.2,-49.8 c -0.7,-8.2 5.4,-15.5 13.7,-16.2 l 1.3,-0.1 c 7.7,0 14.2,5.9 14.9,13.8 l 4.2,49.8 c 0.7,8.2 -5.4,15.5 -13.7,16.2 -0.4,0 -0.9,0.1 -1.3,0.1 m 2093.3,76.5 c -0.4,0 -0.7,-0.1 -1,-0.1 -8.3,-0.5 -14.6,-7.6 -14.1,-15.8 l 2.9,-49.9 c 0.5,-8 7.1,-14.2 15,-14.2 l 0.9,0.1 c 8.3,0.5 14.6,7.5 14.1,15.8 l -3,49.9 c -0.4,8 -6.9,14.2 -14.8,14.2 m -2084.6,23.1 c -7.7,0 -14.5,-5.8 -15.1,-13.7 l -4.3,-49.9 c -0.7,-8.2 5.5,-15.5 13.7,-16.2 h 1.3 c 7.7,0 14.3,5.9 14.9,13.7 l 4.3,49.8 c 0.6,8.3 -5.5,15.6 -13.7,16.2 -0.4,0.1 -0.8,0.1 -1.1,0.1 m 2078.7,76.7 c -0.3,0 -0.6,0 -1,0 -8.2,-0.5 -14.6,-7.6 -14.1,-15.9 l 3,-49.9 c 0.4,-8 7,-14.1 14.9,-14.1 h 0.9 c 8.3,0.5 14.6,7.6 14.1,15.9 l -2.9,49.9 c -0.5,7.9 -6.9,14.1 -14.9,14.1 m -1063.1,632.2 h -498.9 c -0.7,34.9 -1.4,72 -2.2,111.1 h 502.5 l -1.4,-111.1"
         style="fill:#3050b1;fill-opacity:1;fill-rule:nonzero;stroke:none"
         id="path140" />
      <path
         d="m 20158.5,4345.5 26,2135.9 h 374.1 c 5.9,-140.1 12.1,-254 18.4,-329.9 -17.3,-629.8 -42.3,-1389.6 -64.1,-1479.4 -37.9,-156.1 -354.4,-326.6 -354.4,-326.6 m 398.9,2165.9 h -372.6 l 1.4,111.1 h 366.9 c 1.4,-38.4 2.8,-75.6 4.3,-111.1"
         style="fill:#31278e;fill-opacity:1;fill-rule:nonzero;stroke:none"
         id="path142" />
      <path
         d="m 20558.6,6481.4 h -872.1 c -0.2,9.9 -0.4,19.8 -0.6,30 h 498.9 372.6 c 0.4,-10.1 0.8,-20.1 1.2,-30"
         style="fill:#31278e;fill-opacity:1;fill-rule:nonzero;stroke:none"
         id="path144" />
      <path
         d="m 18986.2,3451.7 h -30.1 l 3.8,45.3 c 0.7,7.9 7.4,13.7 15.3,13.7 0.3,0 0.6,0 1,0 8.2,-0.7 14.3,-8 13.7,-16.3 l -3.7,-42.7 m -7.1,78.8 -1.2,0.1 c -8.3,0.7 -14.4,7.9 -13.7,16.2 l 4.2,49.8 c 0.7,7.9 7.4,13.7 15.2,13.7 0.4,0 0.7,0 1,0 8.3,-0.7 14.4,-8 13.7,-16.2 l -4.2,-49.8 c -0.7,-7.9 -7.3,-13.8 -15,-13.8 m 8.5,99.7 h -1.3 c -8.3,0.7 -14.4,8 -13.7,16.2 l 4.2,49.9 c 0.7,7.9 7.4,13.7 15.2,13.7 0.4,0 0.7,0 1,-0.1 8.3,-0.7 14.4,-7.9 13.7,-16.2 l -4.2,-49.8 c -0.7,-7.8 -7.2,-13.7 -14.9,-13.7 m 8.4,99.6 -1.3,0.1 c -8.2,0.7 -14.3,7.9 -13.7,16.2 l 4.3,49.8 c 0.7,7.9 7.4,13.7 15.2,13.7 0.3,0 0.7,0 1,0 8.2,-0.7 14.4,-8 13.7,-16.2 l -4.3,-49.9 c -0.6,-7.8 -7.2,-13.7 -14.9,-13.7 m 8.5,99.7 h -1.3 c -8.3,0.7 -14.4,8 -13.7,16.2 l 4.2,49.8 c 0.7,8 7.4,13.8 15.2,13.8 0.4,0 0.7,0 1,-0.1 8.3,-0.7 14.4,-7.9 13.7,-16.2 l -4.2,-49.8 c -0.7,-7.8 -7.2,-13.7 -14.9,-13.7 m 8.4,99.6 -1.3,0.1 c -8.2,0.7 -14.4,7.9 -13.7,16.2 l 4.2,49.8 c 0.7,7.9 7.5,13.7 15.2,13.7 0.4,0 0.7,0 1.1,0 8.2,-0.7 14.3,-8 13.7,-16.3 l -4.3,-49.8 c -0.6,-7.8 -7.2,-13.7 -14.9,-13.7 m 8.4,99.6 -1.2,0.1 c -8.3,0.7 -14.4,7.9 -13.7,16.2 l 4.2,49.8 c 0.6,7.8 7.1,13.8 14.9,13.8 0.4,0 0.8,-0.1 1.3,-0.1 8.3,-0.7 14.4,-7.9 13.7,-16.2 l -4.2,-49.8 c -0.7,-7.9 -7.3,-13.8 -15,-13.8 m 8.5,99.7 h -1.3 c -8.3,0.7 -14.4,8 -13.7,16.3 l 4.2,49.8 c 0.7,7.9 7.3,13.7 15.2,13.7 0.3,0 0.7,0 1,0 8.3,-0.7 14.4,-8 13.7,-16.3 l -4.2,-49.8 c -0.7,-7.8 -7.2,-13.7 -14.9,-13.7 m 8.4,99.6 -1.3,0.1 c -8.2,0.7 -14.3,7.9 -13.7,16.2 l 4.3,49.8 c 0.6,7.9 7.4,13.7 15.1,13.7 0.4,0 0.7,0 1.1,0 8.2,-0.7 14.4,-8 13.7,-16.2 l -4.3,-49.8 c -0.6,-7.9 -7.2,-13.8 -14.9,-13.8 m 8.5,99.7 h -1.3 c -8.3,0.7 -14.4,8 -13.7,16.2 l 4.2,49.9 c 0.7,7.9 7.4,13.7 15.2,13.7 0.3,0 0.7,0 1,-0.1 8.3,-0.7 14.4,-7.9 13.7,-16.2 l -4.2,-49.8 c -0.7,-7.8 -7.2,-13.7 -14.9,-13.7 m 8.4,99.6 -1.3,0.1 c -8.2,0.7 -14.4,7.9 -13.7,16.2 l 4.2,49.8 c 0.7,7.9 7.5,13.7 15.2,13.7 0.4,0 0.7,0 1.1,0 8.2,-0.7 14.3,-8 13.6,-16.2 l -4.2,-49.9 c -0.6,-7.8 -7.2,-13.7 -14.9,-13.7 m 8.4,99.7 h -1.3 c -8.2,0.7 -14.3,8 -13.6,16.2 l 4.2,49.8 c 0.7,7.9 7.2,13.8 15.1,13.8 0.4,0 0.7,0 1.1,-0.1 8.3,-0.7 14.4,-7.9 13.7,-16.2 l -4.2,-49.8 c -0.7,-7.8 -7.3,-13.7 -15,-13.7 m 8.5,99.6 h -1.3 c -8.3,0.8 -14.4,8 -13.7,16.3 l 4.2,49.8 c 0.7,7.9 7.3,13.7 15.1,13.7 0.4,0 0.8,0 1.1,0 8.3,-0.7 14.4,-8 13.7,-16.2 l -4.2,-49.9 c -0.7,-7.8 -7.2,-13.7 -14.9,-13.7 m 8.4,99.6 -1.3,0.1 c -8.2,0.7 -14.4,7.9 -13.7,16.2 l 4.3,49.8 c 0.6,7.8 7,13.8 14.7,13.8 0.5,0 1,0 1.5,-0.1 8.2,-0.7 14.4,-7.9 13.7,-16.2 l -4.3,-49.8 c -0.6,-7.8 -7.2,-13.8 -14.9,-13.8 m 8.4,99.7 h -1.2 c -8.3,0.7 -14.4,8 -13.7,16.3 l 4.2,49.8 c 0.7,7.9 7.4,13.7 15.1,13.7 0.4,0 0.7,0 1.1,0 8.3,-0.7 14.4,-8 13.7,-16.3 l -4.2,-49.8 c -0.7,-7.8 -7.2,-13.7 -15,-13.7 m 8.5,99.6 -1.3,0.1 c -8.3,0.7 -14.4,7.9 -13.7,16.2 l 4.2,49.8 c 0.7,7.9 7.2,13.7 15.1,13.7 0.4,0 0.8,0 1.2,0 8.2,-0.7 14.3,-8 13.6,-16.2 l -4.2,-49.8 c -0.6,-7.9 -7.2,-13.8 -14.9,-13.8 m 8.4,99.7 h -1.3 c -8.2,0.7 -14.3,8 -13.6,16.2 l 4.2,49.9 c 0.6,7.8 7.2,13.7 15,13.7 0.4,0 0.8,0 1.2,-0.1 8.3,-0.6 14.4,-7.9 13.7,-16.2 l -4.2,-49.8 c -0.7,-7.8 -7.3,-13.7 -15,-13.7 m 8.5,99.6 -1.3,0.1 c -8.3,0.7 -14.4,7.9 -13.7,16.2 l 4.2,49.8 c 0.7,7.9 7.2,13.7 15,13.7 0.4,0 0.8,0 1.2,0 8.3,-0.7 14.4,-8 13.7,-16.2 l -4.2,-49.9 c -0.7,-7.8 -7.2,-13.7 -14.9,-13.7 m 8.4,99.7 h -1.3 c -8.2,0.7 -14.4,8 -13.7,16.2 l 4.3,49.8 c 0.6,7.9 7.3,13.8 15,13.8 0.4,0 0.8,0 1.2,-0.1 8.2,-0.7 14.4,-7.9 13.7,-16.2 l -4.3,-49.8 c -0.6,-7.8 -7.2,-13.7 -14.9,-13.7 m 8.4,99.6 h -1.2 c -8.3,0.8 -14.4,8 -13.7,16.3 l 4.2,49.8 c 0.7,7.8 7.2,13.7 15,13.7 0.4,0 0.8,0 1.2,0 8.3,-0.7 14.4,-8 13.7,-16.2 l -4.2,-49.9 c -0.7,-7.8 -7.2,-13.7 -15,-13.7 m 8.5,99.6 -1.3,0.1 c -8.3,0.7 -14.4,8 -13.7,16.2 l 4.2,49.8 c 0.7,7.8 7.1,13.8 14.9,13.8 0.4,0 0.9,-0.1 1.4,-0.1 8.2,-0.7 14.3,-7.9 13.6,-16.2 l -4.2,-49.8 c -0.7,-7.8 -7.2,-13.8 -14.9,-13.8 m 8.4,99.7 h -1.3 c -8.2,0.7 -14.3,8 -13.6,16.3 l 4.2,49.8 c 0.6,7.9 7.2,13.7 15.1,13.7 0.4,0 0.7,0 1.1,0 8.2,-0.7 14.4,-8 13.7,-16.3 l -4.3,-49.8 c -0.6,-7.8 -7.2,-13.7 -14.9,-13.7 m 8.5,99.6 -1.3,0.1 c -8.3,0.7 -14.4,8 -13.7,16.2 l 4.2,49.8 c 0.7,7.8 7.3,13.8 14.9,13.8 0.4,0 0.9,-0.1 1.3,-0.1 8.3,-0.7 14.4,-8 13.7,-16.2 l -4.2,-49.8 c -0.7,-7.9 -7.2,-13.8 -14.9,-13.8 m 8.4,99.7 h -1.3 c -8.2,0.7 -14.4,8 -13.7,16.2 l 4.3,49.9 c 0.6,7.9 7.4,13.7 15.1,13.7 0.3,0 0.7,0 1.1,-0.1 8.2,-0.6 14.3,-7.9 13.7,-16.2 l -4.3,-49.8 c -0.6,-7.8 -7.2,-13.7 -14.9,-13.7 m 8.4,99.6 -1.2,0.1 c -8.3,0.7 -14.4,7.9 -13.7,16.2 l 4.2,49.8 c 0.3,3.2 1.5,6.1 3.4,8.3 5.1,1.7 10.2,3.3 15.2,5 7,-1.8 11.9,-8.4 11.3,-15.8 l -4.2,-49.8 c -0.7,-7.9 -7.3,-13.8 -15,-13.8"
         style="fill:#31278e;fill-opacity:1;fill-rule:nonzero;stroke:none"
         id="path146" />
      <path
         d="m 21404.5,3451.7 h -30.1 l -0.9,15.7 c -0.5,8.3 5.8,15.4 14.1,15.9 0.3,0 0.7,0 1.1,0 7.6,0 14.3,-6.2 14.7,-14.1 l 1.1,-17.5 m -19,51.5 c -7.9,0 -14.5,6.2 -14.9,14.1 l -3,50 c -0.5,8.2 5.8,15.3 14.1,15.8 0.4,0 0.7,0 1,0 8,0 14.4,-6.1 14.9,-14.1 l 2.9,-49.9 c 0.5,-8.3 -5.8,-15.4 -14.1,-15.8 l -0.9,-0.1 m -5.8,99.8 c -7.9,0 -14.5,6.2 -15,14.2 l -2.9,49.9 c -0.5,8.3 5.8,15.4 14.1,15.8 0.3,0.1 0.6,0.1 1,0.1 7.8,0 14.3,-6.2 14.8,-14.1 l 2.9,-50 c 0.5,-8.2 -5.8,-15.3 -14.1,-15.8 l -0.8,-0.1 m -5.9,99.9 c -7.9,0 -14.5,6.1 -15,14.1 l -2.9,49.9 c -0.5,8.3 5.8,15.4 14.1,15.9 0.3,0 0.7,0 1,0 8,0 14.4,-6.2 14.8,-14.1 l 3,-49.9 c 0.5,-8.3 -5.8,-15.4 -14.1,-15.9 h -0.9 m -5.9,99.8 c -7.9,0 -14.5,6.2 -14.9,14.1 l -3,49.9 c -0.4,8.3 5.9,15.4 14.1,15.9 0.4,0 0.7,0 1.1,0 7.8,0 14.3,-6.2 14.8,-14.1 l 2.9,-49.9 c 0.5,-8.3 -5.8,-15.4 -14.1,-15.9 h -0.9 m -5.8,99.8 c -7.9,0 -14.5,6.2 -15,14.2 l -2.9,49.9 c -0.5,8.2 5.8,15.3 14.1,15.8 0.2,0 0.5,0 0.7,0 7.9,0 14.7,-6.1 15.1,-14.1 l 3,-49.9 c 0.5,-8.3 -5.9,-15.4 -14.1,-15.8 l -0.9,-0.1 m -5.9,99.9 c -7.9,0 -14.5,6.1 -14.9,14.1 l -3,49.9 c -0.5,8.3 5.9,15.4 14.1,15.8 0.4,0.1 0.7,0.1 1.1,0.1 7.8,0 14.3,-6.2 14.8,-14.1 l 2.9,-50 c 0.5,-8.2 -5.8,-15.3 -14.1,-15.8 h -0.9 m -5.8,99.8 c -7.9,0 -14.5,6.1 -15,14.1 l -2.9,49.9 c -0.5,8.3 5.8,15.4 14.1,15.9 0.3,0 0.7,0 1.1,0 7.9,0 14.2,-6.2 14.7,-14.1 l 2.9,-49.9 c 0.5,-8.3 -5.8,-15.4 -14,-15.9 h -0.9 m -5.9,99.8 c -7.9,0 -14.5,6.2 -15,14.1 l -2.9,50 c -0.5,8.2 5.8,15.3 14.1,15.8 0.4,0 0.8,0 1.1,0 8,0 14.3,-6.2 14.8,-14.1 l 2.9,-49.9 c 0.5,-8.3 -5.8,-15.4 -14.1,-15.8 l -0.9,-0.1 m -5.9,99.8 c -7.9,0 -14.5,6.2 -14.9,14.2 l -3,49.9 c -0.4,8.2 5.9,15.4 14.1,15.8 0.4,0.1 0.8,0.1 1.2,0.1 7.9,0 14.2,-6.3 14.7,-14.2 l 2.9,-49.9 c 0.5,-8.2 -5.8,-15.3 -14.1,-15.8 l -0.9,-0.1 m -5.8,99.9 c -7.9,0 -14.5,6.1 -15,14.1 l -2.9,49.9 c -0.5,8.3 5.8,15.4 14.1,15.9 0.4,0 0.8,0 1.1,0 8,0 14.3,-6.2 14.7,-14.1 l 2.9,-49.9 c 0.5,-8.3 -5.8,-15.4 -14,-15.9 h -0.9 m -5.9,99.8 c -7.9,0 -14.5,6.2 -15,14.1 l -2.9,49.9 c -0.5,8.3 5.8,15.4 14.1,15.9 0.4,0 0.8,0 1.2,0 7.9,0 14.2,-6.2 14.7,-14.1 l 2.9,-49.9 c 0.5,-8.3 -5.8,-15.4 -14.1,-15.9 h -0.9 m -5.8,99.8 c -7.9,0 -14.5,6.2 -15,14.2 l -2.9,49.9 c -0.5,8.2 5.8,15.3 14.1,15.8 0.2,0 0.4,0 0.7,0 7.9,0 14.6,-6 15.1,-14.1 l 2.9,-49.9 c 0.5,-8.3 -5.8,-15.4 -14.1,-15.8 l -0.8,-0.1 m -5.9,99.9 c -7.9,0 -14.5,6.1 -15,14.1 l -2.9,49.9 c -0.5,8.3 5.8,15.4 14.1,15.8 0.4,0.1 0.8,0.1 1.2,0.1 7.8,0 14.2,-6.3 14.6,-14.1 l 3,-50 c 0.5,-8.2 -5.8,-15.3 -14.1,-15.8 h -0.9 m -5.9,99.8 c -7.9,0 -14.5,6.1 -14.9,14.1 l -3,49.9 c -0.4,8.3 5.9,15.4 14.1,15.9 0.5,0 0.9,0 1.3,0 7.9,0 14.1,-6.3 14.6,-14.1 l 2.9,-49.9 c 0.5,-8.3 -5.8,-15.4 -14.1,-15.9 h -0.9 m -5.8,99.8 c -7.9,0 -14.5,6.2 -15,14.1 l -2.9,50 c -0.5,8.2 5.8,15.3 14.1,15.8 0.4,0 0.8,0.1 1.2,0.1 7.8,0 14.2,-6.3 14.6,-14.2 l 3,-49.9 c 0.4,-8.3 -5.9,-15.4 -14.1,-15.8 l -0.9,-0.1 m -5.9,99.8 c -7.9,0 -14.5,6.2 -14.9,14.2 l -3,49.9 c -0.5,8.2 5.8,15.4 14.1,15.8 0.4,0.1 0.9,0.1 1.3,0.1 7.9,0 14.1,-6.3 14.6,-14.2 l 2.9,-49.9 c 0.5,-8.2 -5.8,-15.3 -14.1,-15.8 l -0.9,-0.1 m -5.8,99.9 c -7.9,0 -14.5,6.1 -15,14.1 l -2.9,49.9 c -0.5,8.3 5.8,15.4 14.1,15.9 0.2,0 0.5,0 0.8,0 8,0 14.5,-6.2 15,-14.1 l 2.9,-49.9 c 0.5,-8.3 -5.8,-15.4 -14.1,-15.9 h -0.8 m -5.9,99.8 c -7.9,0 -14.5,6.2 -15,14.1 l -2.9,49.9 c -0.5,8.3 5.8,15.4 14.1,15.9 0.3,0 0.6,0 0.9,0 8.1,0 14.5,-6.1 14.9,-14.1 l 3,-49.9 c 0.5,-8.3 -5.8,-15.4 -14.1,-15.9 h -0.9 m -5.9,99.8 c -7.9,0 -14.5,6.2 -14.9,14.2 l -3,49.9 c -0.5,8.2 5.9,15.3 14.1,15.8 0.3,0 0.6,0 0.9,0 8,0 14.5,-6.1 15,-14.1 l 2.9,-49.9 c 0.5,-8.3 -5.8,-15.4 -14.1,-15.8 l -0.9,-0.1 m -5.8,99.9 c -7.9,0 -14.5,6.1 -15,14.1 l -2.9,49.9 c -0.5,8.3 5.8,15.4 14.1,15.8 0.3,0.1 0.6,0.1 0.9,0.1 8.1,0 14.4,-6.2 14.9,-14.1 l 2.9,-50 c 0.5,-8.2 -5.8,-15.3 -14,-15.8 h -0.9 m -5.9,99.8 c -7.9,0 -14.5,6.1 -15,14.1 l -2.9,49.9 c -0.5,8.3 5.8,15.4 14.1,15.9 0.3,0 0.6,0 0.9,0 8,0 14.5,-6.2 15,-14.1 l 2.9,-49.9 c 0.5,-8.3 -5.8,-15.4 -14.1,-15.9 h -0.9 m -5.9,99.8 c -7.8,0 -14.4,6.2 -14.9,14.1 l -2.9,50 c -0.5,8.2 5.8,15.3 14,15.8 0.4,0 0.7,0 1,0 8,0 14.4,-6.1 14.9,-14.1 l 2.9,-49.9 c 0.5,-8.3 -5.8,-15.4 -14.1,-15.8 l -0.9,-0.1 m -5.8,99.8 c -7.9,0 -14.5,6.2 -15,14.2 l -2.9,49.9 c -0.5,8.2 5.8,15.3 14.1,15.8 0.3,0 0.6,0.1 1,0.1 7.9,0 14.4,-6.2 14.8,-14.2 l 3,-49.9 c 0.5,-8.3 -5.8,-15.3 -14.1,-15.8 l -0.9,-0.1 m -5.9,99.9 c -7.9,0 -14.5,6.1 -14.9,14.1 l -3,49.9 c -0.5,8.3 5.9,15.4 14.1,15.9 0.4,0 0.7,0 1,0 8,0 14.4,-6.2 14.9,-14.1 l 2.9,-49.9 c 0.5,-8.3 -5.8,-15.4 -14.1,-15.9 h -0.9 m -5.8,99.8 c -7.9,0 -14.5,6.2 -15,14.1 l -0.2,2.8 c 10,-1.1 20,-2.1 30.1,-3.2 -0.6,-7.3 -6.5,-13.2 -14,-13.7 h -0.9"
         style="fill:#31278e;fill-opacity:1;fill-rule:nonzero;stroke:none"
         id="path148" />
      <path
         d="m 21799.5,5883.6 c -189.5,0 -374.1,11.7 -539.7,29.2 -10.1,1.1 -20.1,2.1 -30.1,3.2 -352.1,39.2 -611.6,103.3 -637.4,132 -5.1,5.7 -10.3,42.2 -15.3,103.5 -6.3,75.9 -12.5,189.8 -18.4,329.9 -0.4,9.9 -0.8,19.9 -1.2,30 -1.5,35.5 -2.9,72.7 -4.3,111.1 h 1516.7 c 81.1,-415.8 140.8,-718.5 140.8,-718.5 -26.8,-2.8 -53.7,-5.4 -80.7,-7.5 -110,-9 -221,-12.9 -330.4,-12.9"
         style="fill:#d3578c;fill-opacity:1;fill-rule:nonzero;stroke:none"
         id="path150" />
      <path
         d="m 18450.8,5786.9 c -38.5,0 -77.9,0.9 -118.1,2.7 v 832.9 h 1351 c 0.8,-39.1 1.5,-76.2 2.2,-111.1 0.2,-10.2 0.4,-20.1 0.6,-30 3.8,-198.6 5.3,-318.1 5.3,-318.1 0,0 -177.8,-150.9 -510.7,-261.6 -5,-1.7 -10.1,-3.3 -15.2,-5 -190.5,-61.8 -430.2,-109.8 -715.1,-109.8"
         style="fill:#d3578c;fill-opacity:1;fill-rule:nonzero;stroke:none"
         id="path152" />
      <path
         d="m 24680.1,7084 h -6065.4 c -155.8,0 -282,-126.2 -282,-282 v -179.5 h 6629.5 V 6802 c 0,155.8 -126.3,282 -282.1,282"
         style="fill:#6880e4;fill-opacity:1;fill-rule:nonzero;stroke:none"
         id="path154" />
      <path
         d="m 23231.3,6042 h -4443.6 c -7.3,0 -13.2,5.9 -13.2,13.1 v 181.7 c 0,7.3 5.9,13.2 13.2,13.2 h 4443.6 c 7.2,0 13.1,-5.9 13.1,-13.2 v -181.7 c 0,-7.2 -5.9,-13.1 -13.1,-13.1"
         style="fill:#ffffff;fill-opacity:1;fill-rule:nonzero;stroke:none"
         id="path156" />
      <path
         d="m 20824.1,5585.3 h -2040.7 c -4.9,0 -8.9,3.9 -8.9,8.9 v 190.1 c 0,4.9 4,8.9 8.9,8.9 h 2040.7 c 4.9,0 8.9,-4 8.9,-8.9 v -190.1 c 0,-5 -4,-8.9 -8.9,-8.9"
         style="fill:#ffffff;fill-opacity:1;fill-rule:nonzero;stroke:none"
         id="path158" />
      <path
         d="m 23873.4,5128.5 h -5084.8 c -7.8,0 -14.1,6.3 -14.1,14 v 179.9 c 0,7.7 6.3,14 14.1,14 h 5084.8 c 7.8,0 14,-6.3 14,-14 v -179.9 c 0,-7.7 -6.2,-14 -14,-14"
         style="fill:#ffffff;fill-opacity:1;fill-rule:nonzero;stroke:none"
         id="path160" />
      <path
         d="m 21670.3,4215 h -2885.2 c -5.8,0 -10.6,4.7 -10.6,10.5 v 186.8 c 0,5.9 4.8,10.6 10.6,10.6 h 2885.2 c 5.8,0 10.5,-4.7 10.5,-10.6 v -186.8 c 0,-5.8 -4.7,-10.5 -10.5,-10.5"
         style="fill:#ffffff;fill-opacity:1;fill-rule:nonzero;stroke:none"
         id="path162" />
      <path
         d="m 20159.1,3758.2 h -1377.2 c -4.1,0 -7.4,3.3 -7.4,7.3 v 193.3 c 0,4 3.3,7.3 7.4,7.3 h 1377.2 c 4,0 7.3,-3.3 7.3,-7.3 v -193.3 c 0,-4 -3.3,-7.3 -7.3,-7.3"
         style="fill:#ffffff;fill-opacity:1;fill-rule:nonzero;stroke:none"
         id="path164" />
      <path
         d="m 24458.7,4671.7 h -5669.3 c -8.2,0 -14.9,6.7 -14.9,14.8 v 178.3 c 0,8.2 6.7,14.9 14.9,14.9 h 5669.3 c 8.2,0 14.8,-6.7 14.8,-14.9 v -178.3 c 0,-8.1 -6.6,-14.8 -14.8,-14.8"
         style="fill:#fc476a;fill-opacity:1;fill-rule:nonzero;stroke:none"
         id="path166" />
      <path
         d="m 14512.5,14643.2 c 0,-72.8 -59.1,-131.9 -131.9,-131.9 -72.8,0 -131.8,59.1 -131.8,131.9 0,72.8 59,131.8 131.8,131.8 72.8,0 131.9,-59 131.9,-131.8"
         style="fill:#ffffff;fill-opacity:1;fill-rule:nonzero;stroke:none"
         id="path168" />
      <path
         d="m 15109.9,14643.2 c 0,-72.8 -59,-131.9 -131.8,-131.9 -72.8,0 -131.8,59.1 -131.8,131.9 0,72.8 59,131.8 131.8,131.8 72.8,0 131.8,-59 131.8,-131.8"
         style="fill:#ffffff;fill-opacity:1;fill-rule:nonzero;stroke:none"
         id="path170" />
      <path
         d="m 15707.4,14643.2 c 0,-72.8 -59,-131.9 -131.8,-131.9 -72.8,0 -131.8,59.1 -131.8,131.9 0,72.8 59,131.8 131.8,131.8 72.8,0 131.8,-59 131.8,-131.8"
         style="fill:#ffffff;fill-opacity:1;fill-rule:nonzero;stroke:none"
         id="path172" />
      <path
         d="m 16304.9,14643.2 c 0,-72.8 -59,-131.9 -131.8,-131.9 -72.8,0 -131.9,59.1 -131.9,131.9 0,72.8 59.1,131.8 131.9,131.8 72.8,0 131.8,-59 131.8,-131.8"
         style="fill:#ffffff;fill-opacity:1;fill-rule:nonzero;stroke:none"
         id="path174" />
      <path
         d="m 14512.5,14168.9 c 0,-72.8 -59.1,-131.8 -131.9,-131.8 -72.8,0 -131.8,59 -131.8,131.8 0,72.8 59,131.9 131.8,131.9 72.8,0 131.9,-59.1 131.9,-131.9"
         style="fill:#ffffff;fill-opacity:1;fill-rule:nonzero;stroke:none"
         id="path176" />
      <path
         d="m 15109.9,14168.9 c 0,-72.8 -59,-131.8 -131.8,-131.8 -72.8,0 -131.8,59 -131.8,131.8 0,72.8 59,131.9 131.8,131.9 72.8,0 131.8,-59.1 131.8,-131.9"
         style="fill:#ffffff;fill-opacity:1;fill-rule:nonzero;stroke:none"
         id="path178" />
      <path
         d="m 15707.4,14168.9 c 0,-72.8 -59,-131.8 -131.8,-131.8 -72.8,0 -131.8,59 -131.8,131.8 0,72.8 59,131.9 131.8,131.9 72.8,0 131.8,-59.1 131.8,-131.9"
         style="fill:#ffffff;fill-opacity:1;fill-rule:nonzero;stroke:none"
         id="path180" />
      <path
         d="m 16304.9,14168.9 c 0,-72.8 -59,-131.8 -131.8,-131.8 -72.8,0 -131.9,59 -131.9,131.8 0,72.8 59.1,131.9 131.9,131.9 72.8,0 131.8,-59.1 131.8,-131.9"
         style="fill:#ffffff;fill-opacity:1;fill-rule:nonzero;stroke:none"
         id="path182" />
      <path
         d="m 14512.5,13694.7 c 0,-72.8 -59.1,-131.9 -131.9,-131.9 -72.8,0 -131.8,59.1 -131.8,131.9 0,72.8 59,131.8 131.8,131.8 72.8,0 131.9,-59 131.9,-131.8"
         style="fill:#ffffff;fill-opacity:1;fill-rule:nonzero;stroke:none"
         id="path184" />
      <path
         d="m 15109.9,13694.7 c 0,-72.8 -59,-131.9 -131.8,-131.9 -72.8,0 -131.8,59.1 -131.8,131.9 0,72.8 59,131.8 131.8,131.8 72.8,0 131.8,-59 131.8,-131.8"
         style="fill:#ffffff;fill-opacity:1;fill-rule:nonzero;stroke:none"
         id="path186" />
      <path
         d="m 15707.4,13694.7 c 0,-72.8 -59,-131.9 -131.8,-131.9 -72.8,0 -131.8,59.1 -131.8,131.9 0,72.8 59,131.8 131.8,131.8 72.8,0 131.8,-59 131.8,-131.8"
         style="fill:#ffffff;fill-opacity:1;fill-rule:nonzero;stroke:none"
         id="path188" />
      <path
         d="m 16304.9,13694.7 c 0,-72.8 -59,-131.9 -131.8,-131.9 -72.8,0 -131.9,59.1 -131.9,131.9 0,72.8 59.1,131.8 131.9,131.8 72.8,0 131.8,-59 131.8,-131.8"
         style="fill:#ffffff;fill-opacity:1;fill-rule:nonzero;stroke:none"
         id="path190" />
      <path
         d="m 14512.5,13220.4 c 0,-72.8 -59.1,-131.8 -131.9,-131.8 -72.8,0 -131.8,59 -131.8,131.8 0,72.8 59,131.9 131.8,131.9 72.8,0 131.9,-59.1 131.9,-131.9"
         style="fill:#ffffff;fill-opacity:1;fill-rule:nonzero;stroke:none"
         id="path192" />
      <path
         d="m 15109.9,13220.4 c 0,-72.8 -59,-131.8 -131.8,-131.8 -72.8,0 -131.8,59 -131.8,131.8 0,72.8 59,131.9 131.8,131.9 72.8,0 131.8,-59.1 131.8,-131.9"
         style="fill:#ffffff;fill-opacity:1;fill-rule:nonzero;stroke:none"
         id="path194" />
      <path
         d="m 15707.4,13220.4 c 0,-72.8 -59,-131.8 -131.8,-131.8 -72.8,0 -131.8,59 -131.8,131.8 0,72.8 59,131.9 131.8,131.9 72.8,0 131.8,-59.1 131.8,-131.9"
         style="fill:#ffffff;fill-opacity:1;fill-rule:nonzero;stroke:none"
         id="path196" />
      <path
         d="m 16304.9,13220.4 c 0,-72.8 -59,-131.8 -131.8,-131.8 -72.8,0 -131.9,59 -131.9,131.8 0,72.8 59.1,131.9 131.9,131.9 72.8,0 131.8,-59.1 131.8,-131.9"
         style="fill:#ffffff;fill-opacity:1;fill-rule:nonzero;stroke:none"
         id="path198" />
      <path
         d="m 14512.5,12746.2 c 0,-72.8 -59.1,-131.9 -131.9,-131.9 -72.8,0 -131.8,59.1 -131.8,131.9 0,72.8 59,131.8 131.8,131.8 72.8,0 131.9,-59 131.9,-131.8"
         style="fill:#ffffff;fill-opacity:1;fill-rule:nonzero;stroke:none"
         id="path200" />
      <path
         d="m 15109.9,12746.2 c 0,-72.8 -59,-131.9 -131.8,-131.9 -72.8,0 -131.8,59.1 -131.8,131.9 0,72.8 59,131.8 131.8,131.8 72.8,0 131.8,-59 131.8,-131.8"
         style="fill:#ffffff;fill-opacity:1;fill-rule:nonzero;stroke:none"
         id="path202" />
      <path
         d="m 15707.4,12746.2 c 0,-72.8 -59,-131.9 -131.8,-131.9 -72.8,0 -131.8,59.1 -131.8,131.9 0,72.8 59,131.8 131.8,131.8 72.8,0 131.8,-59 131.8,-131.8"
         style="fill:#ffffff;fill-opacity:1;fill-rule:nonzero;stroke:none"
         id="path204" />
      <path
         d="m 16304.9,12746.2 c 0,-72.8 -59,-131.9 -131.8,-131.9 -72.8,0 -131.9,59.1 -131.9,131.9 0,72.8 59.1,131.8 131.9,131.8 72.8,0 131.8,-59 131.8,-131.8"
         style="fill:#ffffff;fill-opacity:1;fill-rule:nonzero;stroke:none"
         id="path206" />
      <path
         d="m 14512.5,12271.9 c 0,-72.8 -59.1,-131.8 -131.9,-131.8 -72.8,0 -131.8,59 -131.8,131.8 0,72.8 59,131.9 131.8,131.9 72.8,0 131.9,-59.1 131.9,-131.9"
         style="fill:#ffffff;fill-opacity:1;fill-rule:nonzero;stroke:none"
         id="path208" />
      <path
         d="m 15109.9,12271.9 c 0,-72.8 -59,-131.8 -131.8,-131.8 -72.8,0 -131.8,59 -131.8,131.8 0,72.8 59,131.9 131.8,131.9 72.8,0 131.8,-59.1 131.8,-131.9"
         style="fill:#ffffff;fill-opacity:1;fill-rule:nonzero;stroke:none"
         id="path210" />
      <path
         d="m 15707.4,12271.9 c 0,-72.8 -59,-131.8 -131.8,-131.8 -72.8,0 -131.8,59 -131.8,131.8 0,72.8 59,131.9 131.8,131.9 72.8,0 131.8,-59.1 131.8,-131.9"
         style="fill:#ffffff;fill-opacity:1;fill-rule:nonzero;stroke:none"
         id="path212" />
      <path
         d="m 16304.9,12271.9 c 0,-72.8 -59,-131.8 -131.8,-131.8 -72.8,0 -131.9,59 -131.9,131.8 0,72.8 59.1,131.9 131.9,131.9 72.8,0 131.8,-59.1 131.8,-131.9"
         style="fill:#ffffff;fill-opacity:1;fill-rule:nonzero;stroke:none"
         id="path214" />
      <path
         d="m 14512.5,11797.7 c 0,-72.8 -59.1,-131.9 -131.9,-131.9 -72.8,0 -131.8,59.1 -131.8,131.9 0,72.8 59,131.8 131.8,131.8 72.8,0 131.9,-59 131.9,-131.8"
         style="fill:#ffffff;fill-opacity:1;fill-rule:nonzero;stroke:none"
         id="path216" />
      <path
         d="m 15109.9,11797.7 c 0,-72.8 -59,-131.9 -131.8,-131.9 -72.8,0 -131.8,59.1 -131.8,131.9 0,72.8 59,131.8 131.8,131.8 72.8,0 131.8,-59 131.8,-131.8"
         style="fill:#ffffff;fill-opacity:1;fill-rule:nonzero;stroke:none"
         id="path218" />
      <path
         d="m 15707.4,11797.7 c 0,-72.8 -59,-131.9 -131.8,-131.9 -72.8,0 -131.8,59.1 -131.8,131.9 0,72.8 59,131.8 131.8,131.8 72.8,0 131.8,-59 131.8,-131.8"
         style="fill:#ffffff;fill-opacity:1;fill-rule:nonzero;stroke:none"
         id="path220" />
      <path
         d="m 16304.9,11797.7 c 0,-72.8 -59,-131.9 -131.8,-131.9 -72.8,0 -131.9,59.1 -131.9,131.9 0,72.8 59.1,131.8 131.9,131.8 72.8,0 131.8,-59 131.8,-131.8"
         style="fill:#ffffff;fill-opacity:1;fill-rule:nonzero;stroke:none"
         id="path222" />
      <path
         d="m 8740.24,8940 c -98.66,0 -178.64,80 -178.64,178.6 0,98.7 79.98,178.6 178.64,178.6 98.65,0 178.63,-79.9 178.63,-178.6 0,-98.6 -79.98,-178.6 -178.63,-178.6"
         style="fill:#ffffff;fill-opacity:1;fill-rule:nonzero;stroke:none"
         id="path224" />
      <path
         d="m 8740.24,8130.4 c -98.66,0 -178.64,80 -178.64,178.6 0,98.7 79.98,178.7 178.64,178.7 98.65,0 178.63,-80 178.63,-178.7 0,-98.6 -79.98,-178.6 -178.63,-178.6"
         style="fill:#ffffff;fill-opacity:1;fill-rule:nonzero;stroke:none"
         id="path226" />
      <path
         d="m 8740.24,7320.8 c -98.66,0 -178.64,80 -178.64,178.7 0,98.6 79.98,178.6 178.64,178.6 98.65,0 178.63,-80 178.63,-178.6 0,-98.7 -79.98,-178.7 -178.63,-178.7"
         style="fill:#ffffff;fill-opacity:1;fill-rule:nonzero;stroke:none"
         id="path228" />
      <path
         d="m 8740.24,6511.3 c -98.66,0 -178.64,80 -178.64,178.6 0,98.7 79.98,178.6 178.64,178.6 98.65,0 178.63,-79.9 178.63,-178.6 0,-98.6 -79.98,-178.6 -178.63,-178.6"
         style="fill:#ffffff;fill-opacity:1;fill-rule:nonzero;stroke:none"
         id="path230" />
      <path
         d="m 8097.64,8940 c -98.65,0 -178.63,80 -178.63,178.6 0,98.7 79.98,178.6 178.63,178.6 98.66,0 178.64,-79.9 178.64,-178.6 0,-98.6 -79.98,-178.6 -178.64,-178.6"
         style="fill:#ffffff;fill-opacity:1;fill-rule:nonzero;stroke:none"
         id="path232" />
      <path
         d="m 8097.64,8130.4 c -98.65,0 -178.63,80 -178.63,178.6 0,98.7 79.98,178.7 178.63,178.7 98.66,0 178.64,-80 178.64,-178.7 0,-98.6 -79.98,-178.6 -178.64,-178.6"
         style="fill:#ffffff;fill-opacity:1;fill-rule:nonzero;stroke:none"
         id="path234" />
      <path
         d="m 8097.64,7320.8 c -98.65,0 -178.63,80 -178.63,178.7 0,98.6 79.98,178.6 178.63,178.6 98.66,0 178.64,-80 178.64,-178.6 0,-98.7 -79.98,-178.7 -178.64,-178.7"
         style="fill:#ffffff;fill-opacity:1;fill-rule:nonzero;stroke:none"
         id="path236" />
      <path
         d="m 8097.64,6511.3 c -98.65,0 -178.63,80 -178.63,178.6 0,98.7 79.98,178.6 178.63,178.6 98.66,0 178.64,-79.9 178.64,-178.6 0,-98.6 -79.98,-178.6 -178.64,-178.6"
         style="fill:#ffffff;fill-opacity:1;fill-rule:nonzero;stroke:none"
         id="path238" />
      <path
         d="m 7455.05,8940 c -98.66,0 -178.63,80 -178.63,178.6 0,98.7 79.97,178.6 178.63,178.6 98.66,0 178.64,-79.9 178.64,-178.6 0,-98.6 -79.98,-178.6 -178.64,-178.6"
         style="fill:#ffffff;fill-opacity:1;fill-rule:nonzero;stroke:none"
         id="path240" />
      <path
         d="m 7455.05,8130.4 c -98.66,0 -178.63,80 -178.63,178.6 0,98.7 79.97,178.7 178.63,178.7 98.66,0 178.64,-80 178.64,-178.7 0,-98.6 -79.98,-178.6 -178.64,-178.6"
         style="fill:#ffffff;fill-opacity:1;fill-rule:nonzero;stroke:none"
         id="path242" />
      <path
         d="m 7455.05,7320.8 c -98.66,0 -178.63,80 -178.63,178.7 0,98.6 79.97,178.6 178.63,178.6 98.66,0 178.64,-80 178.64,-178.6 0,-98.7 -79.98,-178.7 -178.64,-178.7"
         style="fill:#ffffff;fill-opacity:1;fill-rule:nonzero;stroke:none"
         id="path244" />
      <path
         d="m 7455.05,6511.3 c -98.66,0 -178.63,80 -178.63,178.6 0,98.7 79.97,178.6 178.63,178.6 98.66,0 178.64,-79.9 178.64,-178.6 0,-98.6 -79.98,-178.6 -178.64,-178.6"
         style="fill:#ffffff;fill-opacity:1;fill-rule:nonzero;stroke:none"
         id="path246" />
      <path
         d="m 6812.46,8940 c -98.66,0 -178.63,80 -178.63,178.6 0,98.7 79.97,178.6 178.63,178.6 98.66,0 178.63,-79.9 178.63,-178.6 0,-98.6 -79.97,-178.6 -178.63,-178.6"
         style="fill:#ffffff;fill-opacity:1;fill-rule:nonzero;stroke:none"
         id="path248" />
      <path
         d="m 6812.46,8130.4 c -98.66,0 -178.63,80 -178.63,178.6 0,98.7 79.97,178.7 178.63,178.7 98.66,0 178.63,-80 178.63,-178.7 0,-98.6 -79.97,-178.6 -178.63,-178.6"
         style="fill:#ffffff;fill-opacity:1;fill-rule:nonzero;stroke:none"
         id="path250" />
      <path
         d="m 6812.46,7320.8 c -98.66,0 -178.63,80 -178.63,178.7 0,98.6 79.97,178.6 178.63,178.6 98.66,0 178.63,-80 178.63,-178.6 0,-98.7 -79.97,-178.7 -178.63,-178.7"
         style="fill:#ffffff;fill-opacity:1;fill-rule:nonzero;stroke:none"
         id="path252" />
      <path
         d="m 6812.46,6511.3 c -98.66,0 -178.63,80 -178.63,178.6 0,98.7 79.97,178.6 178.63,178.6 98.66,0 178.63,-79.9 178.63,-178.6 0,-98.6 -79.97,-178.6 -178.63,-178.6"
         style="fill:#ffffff;fill-opacity:1;fill-rule:nonzero;stroke:none"
         id="path254" />
      <path
         d="m 6169.87,8940 c -98.66,0 -178.64,80 -178.64,178.6 0,98.7 79.98,178.6 178.64,178.6 98.65,0 178.63,-79.9 178.63,-178.6 0,-98.6 -79.98,-178.6 -178.63,-178.6"
         style="fill:#ffffff;fill-opacity:1;fill-rule:nonzero;stroke:none"
         id="path256" />
      <path
         d="m 6169.87,8130.4 c -98.66,0 -178.64,80 -178.64,178.6 0,98.7 79.98,178.7 178.64,178.7 98.65,0 178.63,-80 178.63,-178.7 0,-98.6 -79.98,-178.6 -178.63,-178.6"
         style="fill:#ffffff;fill-opacity:1;fill-rule:nonzero;stroke:none"
         id="path258" />
      <path
         d="m 6169.87,7320.8 c -98.66,0 -178.64,80 -178.64,178.7 0,98.6 79.98,178.6 178.64,178.6 98.65,0 178.63,-80 178.63,-178.6 0,-98.7 -79.98,-178.7 -178.63,-178.7"
         style="fill:#ffffff;fill-opacity:1;fill-rule:nonzero;stroke:none"
         id="path260" />
      <path
         d="m 6169.87,6511.3 c -98.66,0 -178.64,80 -178.64,178.6 0,98.7 79.98,178.6 178.64,178.6 98.65,0 178.63,-79.9 178.63,-178.6 0,-98.6 -79.98,-178.6 -178.63,-178.6"
         style="fill:#ffffff;fill-opacity:1;fill-rule:nonzero;stroke:none"
         id="path262" />
      <path
         d="m 5527.28,8940 c -98.66,0 -178.64,80 -178.64,178.6 0,98.7 79.98,178.6 178.64,178.6 98.65,0 178.63,-79.9 178.63,-178.6 0,-98.6 -79.98,-178.6 -178.63,-178.6"
         style="fill:#ffffff;fill-opacity:1;fill-rule:nonzero;stroke:none"
         id="path264" />
      <path
         d="m 5527.28,8130.4 c -98.66,0 -178.64,80 -178.64,178.6 0,98.7 79.98,178.7 178.64,178.7 98.65,0 178.63,-80 178.63,-178.7 0,-98.6 -79.98,-178.6 -178.63,-178.6"
         style="fill:#ffffff;fill-opacity:1;fill-rule:nonzero;stroke:none"
         id="path266" />
      <path
         d="m 5527.28,7320.8 c -98.66,0 -178.64,80 -178.64,178.7 0,98.6 79.98,178.6 178.64,178.6 98.65,0 178.63,-80 178.63,-178.6 0,-98.7 -79.98,-178.7 -178.63,-178.7"
         style="fill:#ffffff;fill-opacity:1;fill-rule:nonzero;stroke:none"
         id="path268" />
      <path
         d="m 5527.28,6511.3 c -98.66,0 -178.64,80 -178.64,178.6 0,98.7 79.98,178.6 178.64,178.6 98.65,0 178.63,-79.9 178.63,-178.6 0,-98.6 -79.98,-178.6 -178.63,-178.6"
         style="fill:#ffffff;fill-opacity:1;fill-rule:nonzero;stroke:none"
         id="path270" />
      <path
         d="m 4884.68,8940 c -98.65,0 -178.63,80 -178.63,178.6 0,98.7 79.98,178.6 178.63,178.6 98.66,0 178.64,-79.9 178.64,-178.6 0,-98.6 -79.98,-178.6 -178.64,-178.6"
         style="fill:#ffffff;fill-opacity:1;fill-rule:nonzero;stroke:none"
         id="path272" />
      <path
         d="m 4884.68,8130.4 c -98.65,0 -178.63,80 -178.63,178.6 0,98.7 79.98,178.7 178.63,178.7 98.66,0 178.64,-80 178.64,-178.7 0,-98.6 -79.98,-178.6 -178.64,-178.6"
         style="fill:#ffffff;fill-opacity:1;fill-rule:nonzero;stroke:none"
         id="path274" />
      <path
         d="m 4884.68,7320.8 c -98.65,0 -178.63,80 -178.63,178.7 0,98.6 79.98,178.6 178.63,178.6 98.66,0 178.64,-80 178.64,-178.6 0,-98.7 -79.98,-178.7 -178.64,-178.7"
         style="fill:#ffffff;fill-opacity:1;fill-rule:nonzero;stroke:none"
         id="path276" />
      <path
         d="m 4884.68,6511.3 c -98.65,0 -178.63,80 -178.63,178.6 0,98.7 79.98,178.6 178.63,178.6 98.66,0 178.64,-79.9 178.64,-178.6 0,-98.6 -79.98,-178.6 -178.64,-178.6"
         style="fill:#ffffff;fill-opacity:1;fill-rule:nonzero;stroke:none"
         id="path278" />
      <path
         d="m 12728.8,5565.4 c 0,0 400,-707.9 498.4,-1782.5 C 13325.7,2708.4 13067.6,2115 13067.6,2115 H 9502.41 c 0,0 191.87,2973.6 538.39,3631.4 l 2688,-181"
         style="fill:#1b3d9e;fill-opacity:1;fill-rule:nonzero;stroke:none"
         id="path280" />
      <path
         d="m 10277.2,10011.1 c 0,0 -1049.22,-1627.9 -898.52,-1697.7 150.7,-69.9 683.92,-235.7 683.92,-235.7 l 214.6,1933.4"
         style="fill:#f9c438;fill-opacity:1;fill-rule:nonzero;stroke:none"
         id="path282" />
      <g
         id="g284">
        <g
           id="g286"
           clip-path="url(#clipPath290)">
          <path
             d="m 9363.87,8654.9 c 46.41,-9.1 979.53,-284.4 997.73,-341.5 18.1,-57.2 -117.8,-501.1 -172.2,-473.9 -54.3,27.2 -960.32,299 -960.32,398.6 0,99.7 134.79,416.8 134.79,416.8"
             style="fill:#ffffff;fill-opacity:1;fill-rule:nonzero;stroke:none"
             id="path292" />
          <path
             d="m 10101.3,8426.6 c -76.1,26.4 -161.85,54.5 -247.33,81.7 98.1,501.3 256.33,1233.5 374.03,1406.5 10.2,15 19.2,22.1 27.2,22.1 4.7,0 9,-2.5 12.9,-7.2 l -166.8,-1503.1"
             style="fill:#f8b440;fill-opacity:1;fill-rule:nonzero;stroke:none"
             id="path294" />
          <path
             d="m 10062.6,8077.7 c 0,0 -126.38,39.3 -273.49,87.7 15.76,86.4 38.06,206 64.86,342.9 85.48,-27.2 171.23,-55.3 247.33,-81.7 v 0 l -38.7,-348.9"
             style="fill:#fcd9bf;fill-opacity:1;fill-rule:nonzero;stroke:none"
             id="path296" />
        </g>
      </g>
      <path
         d="m 13047.7,10627.3 v 0 c -398.4,304.8 -651.3,393.8 -651.3,393.8 l -990.2,-258.7 c 0,0 -767,-191.8 -1129,-751.3 C 9915.15,9451.6 9945.02,6452.5 9866.86,5595 9814.3,5018.2 12603,5139.1 12866.3,5270.7 c 158.2,79.1 330.5,1200.2 460.7,2250.1 l 540.6,28.5 c 0,0 365.8,2303.7 -819.9,3078"
         style="fill:#f9c438;fill-opacity:1;fill-rule:nonzero;stroke:none"
         id="path298" />
      <g
         id="g300">
        <g
           id="g302"
           clip-path="url(#clipPath306)">
          <path
             d="m 13959.5,7904.3 c 0,0 -394.7,52.5 -666.9,0 -272.2,-52.6 -1075.3,-73 -1075.3,-73 0,0 -102.1,-374.4 6.8,-408.4 108.9,-34 1025,6.3 1091,6.6 66,0.2 596.8,-61 637.6,0.2 40.9,61.3 6.8,474.6 6.8,474.6"
             style="fill:#ffffff;fill-opacity:1;fill-rule:nonzero;stroke:none"
             id="path308" />
        </g>
      </g>
      <path
         d="m 11663.4,13794.3 c -131.2,-16.6 -263.6,-33.5 -388.4,-77.3 -124.7,-43.8 -243,-117.3 -317.4,-226.7 -108.1,-159.2 -109.3,-368.4 -194.5,-541 -105.5,-213.8 -328.2,-349.4 -441.7,-559.1 -63.2,-117 -89,-255.4 -63.2,-385.8 35.2,-178.2 162.6,-327.9 315,-426.7 152.4,-98.8 328.9,-153.1 504.5,-199.5 351.9,-93.1 710.9,-159.7 1072.8,-199.1 133.8,301 238.3,614.1 326.7,931.4 109.1,391.9 180.8,818.1 37.5,1198.8 -38,101.1 -91.6,197.9 -168.1,274.1 -166.2,165.5 -450.5,240.3 -683.2,210.9"
         style="fill:#1b3d9e;fill-opacity:1;fill-rule:nonzero;stroke:none"
         id="path310" />
      <g
         id="g312">
        <g
           id="g314"
           clip-path="url(#clipPath318)">
          <path
             d="m 11118,11453.7 c -129.2,0 -270.2,38 -410,146 -471.1,363.9 285.1,1682 285.1,1682 l 742.3,48.2 -71.2,-1662.9 c 0,0 -239.9,-213.3 -546.2,-213.3"
             style="fill:#1b3092;fill-opacity:1;fill-rule:nonzero;stroke:none"
             id="path320" />
        </g>
      </g>
      <path
         d="m 12598,13248.5 c -95,178.8 -526.4,446.4 -919.3,458.5 -221.4,6.8 -424.1,-124 -516.4,-325.4 -208.7,-455.9 -483.5,-1527.3 -165.6,-1705.2 141.5,-79.2 266.4,-64.7 395.6,-32.7 -29.1,-299 -141.7,-1032.9 -90,-1111.8 192.2,-293.8 930.8,107.3 1102.1,231.9 171.3,124.6 -288.4,1248.1 -288.4,1248.1 124.4,179.4 614.1,987.9 482,1236.6"
         style="fill:#fe8e9c;fill-opacity:1;fill-rule:nonzero;stroke:none"
         id="path322" />
      <g
         id="g324">
        <g
           id="g326"
           clip-path="url(#clipPath330)">
          <path
             d="m 11333.1,11618.5 c 0,0 257.9,104 483,244.7 0,0 -194.2,-623.1 -583.5,-607 l 100.5,362.3"
             style="fill:#e57492;fill-opacity:1;fill-rule:nonzero;stroke:none"
             id="path332" />
          <path
             d="m 10888.6,12980.6 c 20.6,4.7 180.8,-28.2 472.8,212 0,0 108.4,-155.4 471.1,65.9 l 56.5,301.5 -749,98.9 -251.4,-678.3"
             style="fill:#e57492;fill-opacity:1;fill-rule:nonzero;stroke:none"
             id="path334" />
        </g>
      </g>
      <path
         d="m 11449.7,12941.1 c 0,0 -514.4,-282.8 -477.1,-357.3 37.2,-74.6 402.5,28 439.8,9.4 37.3,-18.7 -74.1,-106.6 -124.2,-103.3 -50.2,3.4 -399.6,-5.5 -399.6,88.1 0,93.7 163.8,227.3 561.1,363.1"
         style="fill:#e57492;fill-opacity:1;fill-rule:nonzero;stroke:none"
         id="path336" />
      <path
         d="m 11506.5,13302.5 c -9.5,0.7 -19.3,1.7 -27.6,6.3 -22,12.1 -24.8,43 -18.5,67.3 6.2,24.3 18.8,47.7 17.5,72.7 -133.1,-173.9 -355.6,-255.8 -572.2,-288.3 -11,-1.7 -24.1,-2.5 -31.5,5.9 -3.2,3.6 -4.7,8.5 -6,13.1 -65.6,227.3 -10.7,485.6 141.5,666.7 74.6,88.8 169.7,158.6 270.5,216.1 281.7,160.7 630.7,227.8 935.1,116.1 98.1,-36 193.2,-93.1 248.5,-181.9 20.4,-32.7 35.1,-70.3 34.5,-108.9 -1.1,-60.6 -39.7,-114.7 -85.3,-154.8 -56,-49.2 -123.6,-82.9 -193.2,-108.3 -34.9,-12.7 -70.6,-22.3 -105.9,-33.6 -22,-7 -40.6,-16.4 -56.2,-33.7 -43.5,-48.4 -83.6,-95.5 -136.8,-134.1 -56.3,-40.7 -119.2,-72.3 -185.5,-93.2 -66.2,-20.9 -135.8,-31 -205.2,-28.7 -7.9,0.3 -15.8,0.7 -23.7,1.3"
         style="fill:#1b3d9e;fill-opacity:1;fill-rule:nonzero;stroke:none"
         id="path338" />
      <path
         d="m 10973.2,12295.3 c 0,0 238.5,-132.6 521.3,0 0,0 -160.8,-220.3 -332.9,-209.1 -226.7,14.7 -188.4,209.1 -188.4,209.1"
         style="fill:#ffffff;fill-opacity:1;fill-rule:nonzero;stroke:none"
         id="path340" />
      <path
         d="m 11851.1,13686.6 c 0,0 -250.6,-384.5 -84.7,-745.5 165.8,-361.1 84.7,-1574.9 84.7,-1574.9 0,0 646.6,-15.1 925.5,211.1 279,226.2 0,565.4 0,565.4 0,0 196,-384.4 196,-497.5 0,-113.1 588.1,187 565.4,689.1 -22.6,502 -346.6,1616.2 -1074.2,1662.2 -727.6,46.1 -612.7,-309.9 -612.7,-309.9"
         style="fill:#1b3d9e;fill-opacity:1;fill-rule:nonzero;stroke:none"
         id="path342" />
      <path
         d="m 11466.2,10432.6 c 0,0 5.3,-588.9 365.3,-543.9 360,45 801.6,696.8 716.2,1062.9 l -151.3,69.5 c 0,0 -339.5,-547.6 -930.2,-588.5"
         style="fill:#ffffff;fill-opacity:1;fill-rule:nonzero;stroke:none"
         id="path344" />
      <path
         d="m 11466.2,10432.6 c 0,0 -351.2,-442.8 -503.1,-308.2 -152,134.6 48.4,488.7 48.4,488.7 l 281.6,131.5 c 0,0 -13.8,-268.6 173.1,-312"
         style="fill:#ffffff;fill-opacity:1;fill-rule:nonzero;stroke:none"
         id="path346" />
      <path
         d="m 13327,7520.8 c 0,0 -1043.3,-113.4 -1077.8,0 -34.5,113.4 189.8,1671.8 189.8,1671.8 0,0 -518.2,-1776.7 -426.6,-1990.5 91.5,-213.7 1241.8,-239.4 1241.8,-239.4 l 72.8,558.1"
         style="fill:#f7974d;fill-opacity:1;fill-rule:nonzero;stroke:none"
         id="path348" />
      <path
         d="m 11285,9608.8 c -6.2,-72.6 -46.3,-128.5 -89.6,-124.8 -43.2,3.7 -73.3,65.6 -67.1,138.2 6.3,72.7 46.4,128.6 89.6,124.9 43.3,-3.7 73.3,-65.6 67.1,-138.3"
         style="fill:#ffffff;fill-opacity:1;fill-rule:nonzero;stroke:none"
         id="path350" />
      <path
         d="m 11132.9,8753.2 c -6.2,-72.6 -46.3,-128.5 -89.6,-124.8 -43.2,3.7 -73.3,65.6 -67.1,138.2 6.3,72.6 46.4,128.5 89.6,124.8 43.3,-3.7 73.3,-65.6 67.1,-138.2"
         style="fill:#ffffff;fill-opacity:1;fill-rule:nonzero;stroke:none"
         id="path352" />
      <path
         d="m 10980.8,7897.6 c -6.2,-72.7 -46.3,-128.6 -89.6,-124.9 -43.2,3.7 -73.3,65.6 -67.1,138.3 6.3,72.6 46.4,128.5 89.6,124.8 43.3,-3.7 73.3,-65.6 67.1,-138.2"
         style="fill:#ffffff;fill-opacity:1;fill-rule:nonzero;stroke:none"
         id="path354" />
      <path
         d="m 10828.7,7041.9 c -6.2,-72.6 -46.3,-128.5 -89.6,-124.8 -43.2,3.7 -73.3,65.6 -67.1,138.2 6.3,72.6 46.4,128.5 89.6,124.8 43.3,-3.7 73.3,-65.6 67.1,-138.2"
         style="fill:#ffffff;fill-opacity:1;fill-rule:nonzero;stroke:none"
         id="path356" />
      <path
         d="m 10676.6,6186.3 c -6.2,-72.7 -46.3,-128.5 -89.6,-124.8 -43.2,3.7 -73.3,65.5 -67.1,138.2 6.3,72.6 46.4,128.5 89.6,124.8 43.3,-3.7 73.4,-65.6 67.1,-138.2"
         style="fill:#ffffff;fill-opacity:1;fill-rule:nonzero;stroke:none"
         id="path358" />
      <path
         d="M 10036.5,3142.1 H 7215.1 c -69.76,0 -148.65,56.5 -176.22,126.3 l -740.17,1873.2 c -27.56,69.7 6.64,126.3 76.39,126.3 h 2821.45 c 69.77,0 148.65,-56.6 176.22,-126.3 l 740.13,-1873.2 c 27.6,-69.8 -6.6,-126.3 -76.4,-126.3"
         style="fill:#6880e4;fill-opacity:1;fill-rule:nonzero;stroke:none"
         id="path360" />
      <g
         id="g362">
        <g
           id="g364"
           clip-path="url(#clipPath368)">
          <g
             id="g370"
             clip-path="url(#clipPath374)">
            <path
               d="m 6993.53,3142.1 h 3128.97 v 1786 H 6993.53 Z"
               style="fill:#516ccf;fill-opacity:1;fill-rule:nonzero;stroke:none"
               id="path376" />
          </g>
        </g>
      </g>
      <path
         d="m 6567.39,5036.9 c -29.87,-29.9 -80,-28.2 -111.97,3.8 -31.97,31.9 -33.67,82.1 -3.8,111.9 29.87,29.9 80,28.2 111.97,-3.8 31.96,-31.9 33.67,-82.1 3.8,-111.9"
         style="fill:#1b3d9e;fill-opacity:1;fill-rule:nonzero;stroke:none"
         id="path378" />
      <path
         d="m 9544.25,8322.8 c 0,0 -180.38,-559 -303.27,-858 -40.89,-99.4 -2349.45,1910 -2349.45,1910 l -330.97,-330.4 c 0,0 2116.56,-3014.7 2727.86,-3014.7 414.62,0.1 623.62,305.9 623.62,305.9 l 150.56,1742.1 -518.35,245.1"
         style="fill:#fe8e9c;fill-opacity:1;fill-rule:nonzero;stroke:none"
         id="path380" />
      <g
         id="g382">
        <g
           id="g384"
           clip-path="url(#clipPath388)">
          <path
             d="m 9401.44,8149.1 c 0,0 216.26,-963.5 648.76,-1186.4 l 248.7,1218.9 -814.56,219.8 -82.9,-252.3"
             style="fill:#e57492;fill-opacity:1;fill-rule:nonzero;stroke:none"
             id="path390" />
        </g>
      </g>
      <path
         d="m 6370.43,10039.6 c 0,0 -347.3,176.9 -392.31,189.7 -45.03,12.9 -437.33,48.3 -434.12,32.2 3.22,-16.1 -12.86,-112.6 67.53,-138.3 80.4,-25.7 302.28,-54.7 315.13,-64.3 1.69,-1.3 8.7,-6.7 19.63,-15.1 -63.29,2.1 -433.95,-33.1 -428.02,-47.9 6.1,-15.3 7.91,-113 91.64,-123.6 45.34,-5.8 131.65,-4.9 203.55,-4 60.87,0.8 111.42,1.5 118.02,-1.7 14.42,-7.2 369.47,-193.1 461.74,-179.2 92.27,13.9 233.03,128.3 233.03,128.3 l -255.82,223.9"
         style="fill:#e57492;fill-opacity:1;fill-rule:nonzero;stroke:none"
         id="path392" />
      <path
         d="m 6891.53,9374.8 c 0,0 -186.69,616.5 -263.23,724.1 -76.54,107.6 -896.6,501.3 -896.6,501.3 0,0 -62.04,-101.3 9.04,-167.6 33.56,-31.3 176.9,-139.2 318.88,-244.4 158.7,-117.6 333.14,-301.5 333.14,-301.5 0,0 -725.36,17.3 -715.88,-20.6 9.47,-37.9 61.6,-156.4 170.59,-180.1 108.99,-23.7 336.44,-14.2 393.3,-123.2 56.87,-109 14.09,-307.1 319.79,-518.4 0,0 323.06,218.3 330.97,330.4"
         style="fill:#fe8e9c;fill-opacity:1;fill-rule:nonzero;stroke:none"
         id="path394" />
      <path
         d="m 13729.5,7542 c 0,0 -110.6,-1362.5 -227.3,-1620.6 -83.4,-184.3 -3310.4,-1901.2 -3310.4,-1901.2 l -325.67,454.7 c 0,0 2461.77,1900.4 2461.77,1942.5 0,42.1 60.4,1058.6 60.4,1058.6 l 1341.2,66"
         style="fill:#fe8e9c;fill-opacity:1;fill-rule:nonzero;stroke:none"
         id="path396" />
      <g
         id="g398">
        <g
           id="g400"
           clip-path="url(#clipPath404)">
          <path
             d="m 12306.8,7059.3 c 0,0 1184.9,-200.7 1513.6,-96.6 l 66.5,739.6 h -1634.2 l 54.1,-643"
             style="fill:#e57492;fill-opacity:1;fill-rule:nonzero;stroke:none"
             id="path406" />
        </g>
      </g>
      <path
         d="m 9983.7,4565.8 c 0,0 -234.69,3.9 -337.36,-12.9 -102.67,-16.8 -489.9,-276.5 -482.95,-283.5 6.96,-6.9 71.8,-87.8 134.39,-69.3 l 386.35,136.5 c 0,0 -338.07,-252.4 -370.5,-258.5 -32.42,-6.1 -567.41,-91.2 -567.41,-117.5 0,-26.4 8.11,-133.8 147.94,-121.6 139.82,12.1 492.43,56.7 545.11,68.9 52.69,12.1 -728.4,-114.5 -724.71,-129.2 3.7,-14.8 18.36,-115.6 76.75,-117.7 58.38,-2.2 650.93,34.6 689.85,49.7 38.93,15.1 -506.04,-121.1 -499.55,-129.8 6.49,-8.6 -12.97,-73.5 77.85,-77.8 90.83,-4.3 512.53,64.9 534.16,69.2 21.62,4.3 218.06,148.9 218.06,148.9 0,0 -205.09,-205.5 -241.85,-218.3 -36.77,-12.8 -263.69,-68.7 -246.34,-105.9 13.2,-28.3 92.04,-37.2 178.92,-26.4 86.88,10.8 211.46,34.8 297.96,101.8 86.51,67 466.33,587.7 466.33,587.7 l -283,505.7"
         style="fill:#fe8e9c;fill-opacity:1;fill-rule:nonzero;stroke:none"
         id="path408" />
      <path
         d="M 3978.53,9738.7 H 2538.24 c -124.08,0 -224.67,100.6 -224.67,224.7 v 3479.2 c 0,124.1 100.59,224.7 224.67,224.7 h 1382.81 c -232.76,-880.7 -284.84,-1807.5 -177.77,-2721.8 l -35.13,50 -875.93,-968.9 h 1072.96 c 22.71,-96.3 47.19,-192.4 73.35,-287.9"
         style="fill:#d5dcf7;fill-opacity:1;fill-rule:nonzero;stroke:none"
         id="path410" />
      <path
         d="m 8498.15,9738.7 h -1723.8 c -36.6,107.4 -75.8,215.3 -108.1,287.9 h 1529.33 l -525.55,816.1 -444.7,458 -336.9,-219.2 -485.12,852.7 -417.76,-781.6 -552.51,983.7 -687.26,-1140.8 -317.01,197.5 -518.49,-485.1 -167,237.6 c -107.07,914.3 -54.99,1841.1 177.77,2721.8 h 4577.1 c 124.09,0 224.68,-100.6 224.68,-224.7 V 9963.4 c 0,-124.1 -100.59,-224.7 -224.68,-224.7 m -2745.4,0 H 3978.53 c -26.16,95.5 -50.64,191.6 -73.35,287.9 h 1805.05 c -101.35,-10.5 -194.96,-23.2 -191.96,-30.7 6.1,-15.3 7.91,-113 91.64,-123.6 17.42,-2.3 40.87,-3.5 67.23,-4.1 -0.36,-0.7 -0.45,-1.4 -0.26,-2.1 6.13,-24.6 30.13,-82.9 75.87,-127.4"
         style="fill:#ced7f7;fill-opacity:1;fill-rule:nonzero;stroke:none"
         id="path412" />
      <path
         d="m 5677.14,9868.2 c -26.36,0.6 -49.81,1.8 -67.23,4.1 -83.73,10.6 -85.54,108.3 -91.64,123.6 -3,7.5 90.61,20.2 191.96,30.7 h 540.24 c 81.96,-76.3 142.29,-139.9 142.29,-139.9 0,0 -165.04,3.9 -336.64,3.9 -181.17,0 -369.66,-4.4 -378.98,-22.4"
         style="fill:#c277a9;fill-opacity:1;fill-rule:nonzero;stroke:none"
         id="path414" />
      <path
         d="m 6774.35,9738.7 h -1021.6 c -45.74,44.5 -69.74,102.8 -75.87,127.4 -0.19,0.7 -0.1,1.4 0.26,2.1 9.32,18 197.81,22.4 378.98,22.4 171.6,0 336.64,-3.9 336.64,-3.9 0,0 -60.33,63.6 -142.29,139.9 h 415.78 c 32.3,-72.6 71.5,-180.5 108.1,-287.9"
         style="fill:#d48ab0;fill-opacity:1;fill-rule:nonzero;stroke:none"
         id="path416" />
      <path
         d="M 4252.14,13091.9 H 2819.53 c -36.96,0 -66.92,30 -66.92,67 v 93.3 c 0,37 29.96,66.9 66.92,66.9 h 1432.61 c 36.95,0 66.91,-29.9 66.91,-66.9 v -93.3 c 0,-37 -29.96,-67 -66.91,-67"
         style="fill:#6880e4;fill-opacity:1;fill-rule:nonzero;stroke:none"
         id="path418" />
      <path
         d="m 3717.92,12777.9 h -911.33 c -29.81,0 -53.98,24.2 -53.98,54 v 119.2 c 0,29.8 24.17,54 53.98,54 h 911.33 c 29.81,0 53.98,-24.2 53.98,-54 v -119.2 c 0,-29.8 -24.17,-54 -53.98,-54"
         style="fill:#ffffff;fill-opacity:1;fill-rule:nonzero;stroke:none"
         id="path420" />
      <path
         d="M 3905.18,10026.6 H 2832.22 l 875.93,968.9 35.13,-50 c 36.13,-308.5 90.36,-615.5 161.9,-918.9"
         style="fill:#a3b2ee;fill-opacity:1;fill-rule:nonzero;stroke:none"
         id="path422" />
      <path
         d="M 8195.58,10026.6 H 6666.25 c -14.27,32.1 -27.2,57.2 -37.95,72.3 -76.54,107.6 -896.6,501.3 -896.6,501.3 0,0 -62.04,-101.3 9.04,-167.6 31.97,-29.8 163.57,-129.2 298.7,-229.4 -29.6,13.7 -51.98,23.4 -61.32,26.1 -36.95,10.6 -307.76,36.3 -401.95,36.3 -20.59,0 -32.74,-1.2 -32.17,-4.1 3.22,-16.1 -12.86,-112.6 67.53,-138.3 80.4,-25.7 302.28,-54.7 315.13,-64.3 1.69,-1.3 8.7,-6.7 19.63,-15.1 -1.85,0.1 -3.97,0.1 -6.33,0.1 -37.46,0 -136.84,-7.7 -229.73,-17.3 H 3905.18 c -71.54,303.4 -125.77,610.4 -161.9,918.9 l 167,-237.6 518.49,485.1 317.01,-197.5 687.26,1140.8 552.51,-983.7 417.76,781.6 485.12,-852.7 336.9,219.2 444.7,-458 525.55,-816.1"
         style="fill:#9fafee;fill-opacity:1;fill-rule:nonzero;stroke:none"
         id="path424" />
      <path
         d="m 6250.47,10026.6 h -540.24 c 92.89,9.6 192.27,17.3 229.73,17.3 2.36,0 4.48,0 6.33,-0.1 -10.93,8.4 -17.94,13.8 -19.63,15.1 -12.85,9.6 -234.73,38.6 -315.13,64.3 -80.39,25.7 -64.31,122.2 -67.53,138.3 -0.57,2.9 11.58,4.1 32.17,4.1 94.19,0 365,-25.7 401.95,-36.3 9.34,-2.7 31.72,-12.4 61.32,-26.1 6.72,-5 13.45,-10 20.18,-15 65.38,-48.4 133.42,-108.1 190.85,-161.6"
         style="fill:#997bc4;fill-opacity:1;fill-rule:nonzero;stroke:none"
         id="path426" />
      <path
         d="m 6666.25,10026.6 h -415.78 c -57.43,53.5 -125.47,113.2 -190.85,161.6 -6.73,5 -13.46,10 -20.18,15 -135.13,100.2 -266.73,199.6 -298.7,229.4 -71.08,66.3 -9.04,167.6 -9.04,167.6 0,0 820.06,-393.7 896.6,-501.3 10.75,-15.1 23.68,-40.2 37.95,-72.3"
         style="fill:#a285c8;fill-opacity:1;fill-rule:nonzero;stroke:none"
         id="path428" />
      <path
         d="m 2830.6,12527.8 c -40.24,0 -72.99,-32.7 -72.99,-73 v -2350.2 c 0,-40.3 32.75,-73 72.99,-73 h 5375.19 c 40.24,0 72.99,32.7 72.99,73 v 2350.2 c 0,40.3 -32.75,73 -72.99,73 z M 8205.79,10021.6 H 2830.6 c -45.76,0 -82.99,37.2 -82.99,83 v 2350.2 c 0,45.8 37.23,83 82.99,83 h 5375.19 c 45.76,0 82.99,-37.2 82.99,-83 v -2350.2 c 0,-45.8 -37.23,-83 -82.99,-83"
         style="fill:#6880e4;fill-opacity:1;fill-rule:nonzero;stroke:none"
         id="path430" />
      <path
         d="M 8283.78,12121.3 H 2752.61 v 10 h 5531.17 v -10"
         style="fill:#6880e4;fill-opacity:1;fill-rule:nonzero;stroke:none"
         id="path432" />
      <path
         d="M 8283.78,11698 H 2752.61 v 10 h 5531.17 v -10"
         style="fill:#6880e4;fill-opacity:1;fill-rule:nonzero;stroke:none"
         id="path434" />
      <path
         d="M 8283.78,11274.7 H 2752.61 v 10 h 5531.17 v -10"
         style="fill:#6880e4;fill-opacity:1;fill-rule:nonzero;stroke:none"
         id="path436" />
      <path
         d="M 8283.78,10851.4 H 2752.61 v 10 h 5531.17 v -10"
         style="fill:#6880e4;fill-opacity:1;fill-rule:nonzero;stroke:none"
         id="path438" />
      <path
         d="M 8283.78,10428.1 H 2752.61 v 10 h 5531.17 v -10"
         style="fill:#6880e4;fill-opacity:1;fill-rule:nonzero;stroke:none"
         id="path440" />
      <path
         d="m 6042.32,12695.9 h -107.81 c -13.54,0 -24.52,10.9 -24.52,24.5 v 211.9 c 0,13.5 10.98,24.5 24.52,24.5 h 107.81 c 13.54,0 24.52,-11 24.52,-24.5 v -211.9 c 0,-13.6 -10.98,-24.5 -24.52,-24.5"
         style="fill:#6880e4;fill-opacity:1;fill-rule:nonzero;stroke:none"
         id="path442" />
      <path
         d="m 6311.09,12695.9 h -95.99 c -16.81,0 -30.43,13.6 -30.43,30.4 v 341 c 0,16.8 13.62,30.4 30.43,30.4 h 95.99 c 16.81,0 30.43,-13.6 30.43,-30.4 v -341 c 0,-16.8 -13.62,-30.4 -30.43,-30.4"
         style="fill:#ffffff;fill-opacity:1;fill-rule:nonzero;stroke:none"
         id="path444" />
      <path
         d="m 6582.04,12695.9 h -88.53 c -18.86,0 -34.16,15.2 -34.16,34.1 v 438.3 c 0,18.9 15.3,34.1 34.16,34.1 h 88.53 c 18.87,0 34.16,-15.2 34.16,-34.1 V 12730 c 0,-18.9 -15.29,-34.1 -34.16,-34.1"
         style="fill:#ffffff;fill-opacity:1;fill-rule:nonzero;stroke:none"
         id="path446" />
      <path
         d="m 7963.85,12703.5 h -114.64 c -11.66,0 -21.1,9.4 -21.1,21.1 v 151.1 c 0,11.7 9.44,21.1 21.1,21.1 h 114.64 c 11.66,0 21.1,-9.4 21.1,-21.1 v -151.1 c 0,-11.7 -9.44,-21.1 -21.1,-21.1"
         style="fill:#6880e4;fill-opacity:1;fill-rule:nonzero;stroke:none"
         id="path448" />
      <path
         d="m 8253.65,12703.5 h -96.58 c -16.65,0 -30.14,13.5 -30.14,30.1 v 334 c 0,16.7 13.49,30.1 30.14,30.1 h 96.58 c 16.64,0 30.13,-13.4 30.13,-30.1 v -334 c 0,-16.6 -13.49,-30.1 -30.13,-30.1"
         style="fill:#ffffff;fill-opacity:1;fill-rule:nonzero;stroke:none"
         id="path450" />
      <path
         d="m 6851.93,12695.9 h -78.95 c -21.51,0 -38.94,17.4 -38.94,38.9 v 580.7 c 0,21.5 17.43,39 38.94,39 h 78.95 c 21.52,0 38.95,-17.5 38.95,-39 v -580.7 c 0,-21.5 -17.43,-38.9 -38.95,-38.9"
         style="fill:#ffffff;fill-opacity:1;fill-rule:nonzero;stroke:none"
         id="path452" />
      <path
         d="m 7146.56,12695.9 h -118.84 c -10.49,0 -19,8.5 -19,19 v 118.8 c 0,10.5 8.51,19 19,19 h 118.84 c 10.5,0 19.01,-8.5 19.01,-19 v -118.8 c 0,-10.5 -8.51,-19 -19.01,-19"
         style="fill:#6880e4;fill-opacity:1;fill-rule:nonzero;stroke:none"
         id="path454" />
      <path
         d="m 7401.3,12695.9 h -78.95 c -21.51,0 -38.95,17.4 -38.95,38.9 v 580.7 c 0,21.5 17.44,39 38.95,39 h 78.95 c 21.51,0 38.95,-17.5 38.95,-39 v -580.7 c 0,-21.5 -17.44,-38.9 -38.95,-38.9"
         style="fill:#ffffff;fill-opacity:1;fill-rule:nonzero;stroke:none"
         id="path456" />
      <path
         d="m 7680.77,12695.9 h -88.53 c -18.87,0 -34.16,15.2 -34.16,34.1 v 438.3 c 0,18.9 15.29,34.1 34.16,34.1 h 88.53 c 18.87,0 34.16,-15.2 34.16,-34.1 V 12730 c 0,-18.9 -15.29,-34.1 -34.16,-34.1"
         style="fill:#ffffff;fill-opacity:1;fill-rule:nonzero;stroke:none"
         id="path458" />
      <path
         d="M 27810.9,2075 H 2506.84 c -22.09,0 -40,17.9 -40,40 0,22.1 17.91,40 40,40 H 27810.9 c 22,0 40,-17.9 40,-40 0,-22.1 -18,-40 -40,-40"
         style="fill:#1c056d;fill-opacity:1;fill-rule:nonzero;stroke:none"
         id="path460" />
    </g>
  </g>
</svg>
